<?xml version="1.0" encoding="UTF-8"?>
<!-- Created with Inkscape (http://www.inkscape.org/) -->
<svg width="1280" height="640" version="1.1" viewBox="0 0 1280 640" xmlns="http://www.w3.org/2000/svg" xmlns:cc="http://creativecommons.org/ns#" xmlns:dc="http://purl.org/dc/elements/1.1/" xmlns:rdf="http://www.w3.org/1999/02/22-rdf-syntax-ns#" xmlns:xlink="http://www.w3.org/1999/xlink">
 <path d="m279.2 332c-0.176-0.0587-0.72047-0.1952-1.2099-0.30333-0.53-0.11705-1.1443-0.61373-1.5188-1.228-0.84681-1.3889-0.80814-1.5114 0.47688-1.5114 0.60949 0 1.8558-0.29469 2.7696-0.65488 1.146-0.45171 2.9616-0.74637 5.8518-0.9497 2.3047-0.16211 5.4144-0.4399 6.9104-0.61728 1.496-0.1774 4.88-0.45532 7.52-0.6176 4.8551-0.29849 11.372-1.3826 16.64-2.7682 1.7626-0.46358 4.2695-0.8281 6.4614-0.93946 1.9698-0.10009 5.4574-0.53548 7.7504-0.96755 5.5404-1.044 15.708-2.0012 15.708-1.4788 0 0.16 0.4535 0.44903 1.0077 0.64224 1.5695 0.54711 1.8548 0.36791 0.43226-0.27152l-1.28-0.57534 1.6-0.22042c0.88-0.12124 3.04-0.4891 4.8-0.81748s4.7798-0.8314 6.7107-1.1178c1.9309-0.28643 3.5634-0.57347 3.6278-0.63788 0.0644-0.0644-0.21939-0.33142-0.63065-0.59337-1.065-0.67828-3.583-1.1026-8.9078-1.501-2.552-0.19094-5.36-0.55088-6.24-0.79986-0.88-0.24899-2.6539-0.48945-3.942-0.53438l-2.342-0.0817-1.6906 1.831c-0.92982 1.0071-1.8702 1.831-2.0897 1.831-0.21949 0-0.89936 0.2374-1.5108 0.52756-0.99885 0.47399-2.5681 0.51025-15.451 0.35708-8.5961-0.1022-14.567-0.29823-14.909-0.48946-0.53895-0.30161-0.53666-0.32844 0.0422-0.49318 0.33666-0.0958 1.1161-0.27494 1.7321-0.39804s2.056-0.69252 3.2-1.2654c3.1259-1.5653 7.4067-3.2796 8.8228-3.5333 0.69148-0.12387 2.2652-0.73198 3.4972-1.3514 4.5156-2.2702 10.661-2.9268 27.549-2.9438 7.9814-8e-3 10.26-0.1063 11.52-0.49676 1.4529-0.45019 7.0108-1.427 8.144-1.4314 0.40077-2e-3 0.49066 0.4383 0.48 2.3486-8e-3 1.4316 0.14365 2.5395 0.38794 2.8341 0.26329 0.31748 1.2825 0.5571 2.9673 0.69761 1.4114 0.11771 3.679 0.42117 5.0389 0.67435 8.1353 1.5146 16.644 1.4601 25.353-0.16238 10.329-1.9243 14.334-2.5545 18.08-2.8447 7.8485-0.60793 18.242-1.9403 21.059-2.6997 4.571-1.2321 4.2846-1.4857-1.715-1.5188l-5.264-0.029 2.88-0.76996c2.6279-0.70255 10.831-1.6417 11.728-1.3428 0.20448 0.0682-0.46932 0.54845-1.4973 1.0673l-1.8691 0.94338 4.4592 0.20095c2.4526 0.11053 8.0592 0.2296 12.459 0.2646 7.1087 0.0565 7.8574 0.11063 6.72 0.48549l-1.28 0.42185 1.28 0.0283c3.2103 0.0711 8.5038-0.62409 11.52-1.5129 2.4167-0.71215 4.4141-1.0334 8.16-1.3122 2.728-0.20311 6.688-0.56852 8.8-0.81203s4.992-0.53266 6.4-0.64254c1.408-0.10989 2.956-0.27462 3.44-0.36609 0.51923-0.0981 0.88-0.0247 0.88 0.17913 0 0.18998-0.33024 0.34542-0.73382 0.34542-1.1771 0-5.9756 1.4868-8.563 2.6532-1.447 0.65231-3.6401 1.2918-5.5831 1.6279-1.76 0.30446-5.144 0.99227-7.52 1.5285s-5.544 1.1725-7.04 1.4141l-2.72 0.43918 5.6-0.14074c6.3071-0.15853 8.8312-0.43079 16.16-1.7431 2.816-0.50424 5.84-1.0128 6.72-1.1301s3.544-0.70725 5.92-1.311 4.752-1.1008 5.28-1.1045c0.528-4e-3 1.8386-0.1909 2.9123-0.416l1.9524-0.40928-0.92294 1.4559c-0.80845 1.2753-1.1896 1.5468-3.0724 2.1882-1.1822 0.40276-4.4534 1.2216-7.2694 1.8197-6.0008 1.2744-17.572 4.2054-23.04 5.8361-3.7196 1.1092-8.1692 3.0888-10.503 4.6728l-1.1362 0.77107-24.58 0.18442c-15.449 0.1159-25.076 0.30902-25.915 0.5199-1.1852 0.29798-1.4897 0.24688-2.72-0.45651-0.76198-0.43562-1.7764-0.79377-2.2542-0.79589-0.49996-2e-3 -0.99718-0.24383-1.1713-0.56917-0.28595-0.5343-3.3207-1.867-6.9618-3.0572-1.5141-0.49495-1.7374-0.49679-2.8698-0.0236-0.70579 0.29489-2.3275 1.6555-3.8136 3.1996l-2.5857 2.6865h-2.0933c-1.1513 0-3.1604 0.26451-4.4645 0.5878-1.3042 0.3233-3.5952 0.83904-5.0912 1.1461-1.496 0.3071-3.656 0.78304-4.8 1.0577-1.5969 0.38333-14.561 1.1812-14.938 0.91936-0.032-0.0221 1.2996-1.0462 2.9589-2.2756 1.6593-1.2294 3.0174-2.3433 3.018-2.4753 0-0.3201-0.27136-0.304-3.9989 0.23606-1.76 0.25501-5.144 0.48256-7.52 0.5057-4.6724 0.0455-7.6622 0.52582-3.68 0.59123 2.4597 0.0404 2.406 0.32739-0.2104 1.1222-1.1762 0.35732-2.2068 0.39053-4.8892 0.15764-3.1696-0.27524-3.8838-0.46916-7.7804-2.1126-0.77347-0.32621-0.3904 0.44141 0.4 0.80154 1.3996 0.63772 1.0106 1.5228-1.36 3.0945-1.188 0.78768-2.8759 1.9377-3.7508 2.5557-2.9742 2.1007-1.9612 2.0257-29.609 2.1934-21.208 0.12864-25.743 0.2368-29.12 0.69437-2.2 0.29808-4.4856 0.7441-5.0791 0.99111-1.0033 0.4176-2.3278 0.54307-3.0809 0.29184zm452.24-9.2266c-0.25175-0.20688-0.83776-1.045-1.3022-1.8624-1.359-2.3917-2.4883-3.1537-4.6739-3.1537-2.9308 0-3.5511-0.3543-4.7818-2.7312-1.328-2.5647-1.9528-3.0703-4.9081-3.9716-5.4582-1.6647-7.4878-2.83-7.8198-4.49-0.27904-1.3953-1.0865-1.9282-3.8575-2.5458-1.3793-0.30747-3.3692-0.93271-4.4219-1.3894-1.0527-0.45672-2.274-0.93087-2.714-1.0536-0.81478-0.22736-3.2608-2.2219-3.4814-2.8388-0.0668-0.18675-0.3736-0.91554-0.68185-1.6195-0.30826-0.704-0.64989-1.568-0.7592-1.92-0.10928-0.352-1.0395-1.4966-2.0672-2.5435l-1.8685-1.9035 0.892-0.75056c0.4906-0.4128 0.97904-1.0249 1.0854-1.3602 0.11165-0.35172 0.38138-0.53753 0.6376-0.43921 0.61783 0.23709 3.325-0.34352 9.1231-1.9567 5.393-1.5004 14.646-3.4643 18.72-3.9732 1.408-0.17588 3.784-0.61429 5.28-0.97423 1.496-0.35995 3.368-0.66144 4.16-0.66999 2.7143-0.0293 11.747-1.4492 10.88-1.7103-0.62038-0.18692 0.13395-0.44235 3.36-1.1377 4.7948-1.0336 8.16-1.9587 8.16-2.2433 0-0.31033-10.309-0.0395-14.56 0.38246-2.112 0.20966-5.712 0.40403-8 0.43193s-4.808 0.23083-5.6 0.45093c-1.1229 0.31206-1.935 0.31865-3.6877 0.0299-2.3483-0.38687-16.178-0.0421-24.312 0.60602-2.112 0.16829-5.568 0.30958-7.68 0.31399-3.7169 8e-3 -7.6931 0.51394-10.394 1.3232-1.2941 0.38772-1.3222 0.3784-2.6033-0.86205-1.1534-1.1169-4.6199-5.8032-4.9803-6.7328-0.0765-0.19734 0.50477-0.73612 1.2917-1.1973 0.9759-0.57193 1.6176-1.2502 2.0184-2.1335 0.53379-1.1763 0.67565-1.2795 1.5476-1.1264 1.7155 0.30127 19.123 0.16746 21.92-0.1685 3.093-0.37146 4.7217-0.76101 9.92-2.3726 3.2946-1.0214 4.2665-1.1739 9.28-1.4563 10.834-0.61009 33.383-3.3647 40.8-4.9841 2.816-0.61485 6.632-1.3211 8.48-1.5694 1.848-0.24832 3.792-0.52034 4.32-0.6045 1.1307-0.18022 1.5159-0.37676-4.48 2.2859-5.8417 2.5942-9.7864 4.6461-9.6602 5.0247 0.079 0.23706 10.129 0.37157 33.047 0.44228l32.933 0.1016-3.1348 0.77541c-4.7284 1.1696-9.9942 1.9548-34.465 5.1393-4.84 0.62985-11.104 1.3238-13.92 1.542-4.691 0.36358-5.5959 0.54193-10.8 2.1284-3.1239 0.95238-5.6799 1.8396-5.68 1.9716-1.2e-4 0.132 3.4918 0.25475 7.7598 0.27278l7.76 0.0328-8 0.76246c-4.4 0.41936-9.838 1.0526-12.085 1.4072-2.2465 0.35462-4.451 0.64476-4.8989 0.64476-0.46137 0-0.7286 0.13868-0.61654 0.32 0.12992 0.21022 13.446 0.32933 38.819 0.34721 31.529 0.0222 38.32 0.10039 36.979 0.42572-0.90333 0.21918-2.1273 0.62606-2.72 0.90417-0.59264 0.27811-2.4455 1.0271-4.1175 1.6644-4.2995 1.6388-4.1846 1.5822-5.6384 2.776-0.72509 0.59542-1.6251 1.2944-2 1.5532-0.87238 0.60234-0.88077 1.0757-0.0141 0.80064 0.58519-0.18573 0.62579-0.13396 0.32935 0.41996-0.72064 1.3465-2.5321 1.7238-14.917 3.1064-8.3284 0.92976-18.21 3.2696-19.824 4.6941-0.1672 0.14755 4.2968 0.26666 9.92 0.26469l10.224-4e-3 7.2-1.4199 7.2-1.4199 0.47948 0.70346c0.26375 0.3869 0.94775 1.126 1.52 1.6423 0.57229 0.51639 1.0405 1.1038 1.0405 1.3054s0.30944 0.3551 0.68761 0.34112c0.8728-0.0323 1.1574 0.70599 0.37901 0.98306-0.32266 0.11485-0.83546 0.42238-1.1396 0.68341-0.59472 0.51041-2.0783 0.79055-2.2987 0.43403-0.0739-0.11959-1.4065-0.18556-2.9614-0.1466-2.5789 0.0646-4.3002 0.37137-6.027 1.0741-0.352 0.14325-1.648 0.57796-2.88 0.96603s-2.807 0.97446-3.5001 1.3031c-0.69306 0.32861-1.4491 0.59748-1.68 0.59748s-0.4199 0.27452-0.4199 0.61005c0 0.45673-0.16426 0.56708-0.65364 0.43911-0.4463-0.11671-0.62393-0.0311-0.56 0.26996 0.0606 0.28543-0.1559 0.41478-0.61404 0.36684-0.49264-0.0515-0.65536 0.0623-0.53552 0.37454 0.11049 0.28795-0.0828 0.48635-0.53965 0.55404-0.39149 0.058-0.8705 0.39346-1.0645 0.74546-0.43552 0.79032-0.88167 1.1275-1.2174 0.92-0.14038-0.0868-0.25526 3e-3 -0.25526 0.2 0 0.19678-0.15031 0.26488-0.33402 0.15134s-0.50771-0.0671-0.72 0.1032c-0.21229 0.17029-0.88998 0.38783-1.506 0.48342-0.616 0.0956-10.048 1.6907-20.96 3.5446-10.912 1.854-21.28 3.6114-23.04 3.9054-4.3353 0.72427-4.147 0.64085-3.3583 1.4881 0.87469 0.93966 1.2422 0.95382 6.5583 0.25261 6.994-0.92251 8.4817-1.0375 7.52-0.58132-0.44 0.20872-1.2831 0.88949-1.8735 1.5128l-1.0735 1.1333-4.0465 0.18903c-3.5672 0.16665-4.0275 0.23129-3.0065 0.4223 0.57104 0.10684 1.0348 0.58454 0.85312 0.87862-0.10916 0.17661 0.0524 0.27399 0.36156 0.21789 0.3074-0.0558 0.62855 0.0986 0.71364 0.34314 0.0894 0.2568 0.0115 0.35597-0.18471 0.23478-0.18665-0.11536-0.41917-0.0807-0.51664 0.077-0.16512 0.26713-2.88 1.261-4.0785 1.493-0.29229 0.0566-0.73744-0.0664-0.98922-0.27325zm-0.46112-11.264c1.9105-0.43128 6.882-1.7852 11.048-3.0088 6.5395-1.9207 15.867-4.4726 26.029-7.1209 1.5264-0.39779 2.7059-0.83553 2.6211-0.97274s-1.949-0.24947-4.1428-0.24947h-3.9885l1.3087-1.6556c0.80557-1.0191 1.8849-1.9321 2.8074-2.3748l1.4988-0.71914-23.95-0.0253c-23.543-0.0248-23.988-0.0137-26.19 0.65494-2.7155 0.82481-6.214 0.72566-8.1474-0.23089-1.1048-0.54663-1.3704-0.56594-2.514-0.18284-1.0386 0.34795-1.6757 0.35508-3.3943 0.038-1.1889-0.21936-2.7582-0.29402-3.5824-0.17043-1.4165 0.21242-1.4484 0.24121-0.93315 0.84297 0.29341 0.34267 0.6903 0.62304 0.88201 0.62304 0.19168 0 0.63677 0.26852 0.98903 0.59672 1.1462 1.0679 1.8253 1.2426 5.71 1.4688 2.1064 0.12265 3.9462 0.29495 4.0885 0.3829 0.14227 0.0879 0.21888 0.39953 0.17021 0.69242-0.0734 0.44179 0.32048 0.56998 2.3115 0.75225 6.6829 0.61179 7.472 0.70647 6.88 0.82555-0.91552 0.18415-3.5278 1.1573-5.751 2.1423l-1.911 0.84672 2.3728 1.4069c1.305 0.77379 2.4926 1.3329 2.639 1.2424 0.1464-0.0905 0.22659 0.0262 0.17824 0.25929-0.0484 0.23309 0.0921 0.38779 0.31206 0.34379 0.22-0.044 0.4 0.088 0.4 0.29333 0 0.20534 0.0807 0.29261 0.17939 0.19394 0.0987-0.0987 0.53187 0.17309 0.96269 0.6039 0.43085 0.43085 0.94832 0.6813 1.15 0.55662 0.21251-0.13135 0.27987-0.0861 0.16013 0.10764-0.2032 0.32878 1.9352 1.5707 2.4515 1.4238 0.14508-0.0413 0.17705 0.0653 0.071 0.2368-0.22132 0.35812 0.91737 1.0651 1.2231 0.75939 0.11114-0.11114 0.20208-0.0449 0.20208 0.14713 0 0.44767 1.426 0.26981 5.8582-0.73069zm-20.69-10.587c-0.0262-0.0194-1.0558-0.12174-2.2878-0.22734l-2.24-0.192 1.2406 0.75967c1.1969 0.73293 1.2774 0.74093 2.2878 0.22734 0.57594-0.29279 1.0257-0.54824 0.9994-0.56767zm34.672 17.945c0-0.61012 1.8735-1.557 2.9343-1.4829 0.58253 0.0406 1.0603-0.20223 1.5017-0.76338 0.35606-0.45265 0.97962-0.86014 1.3857-0.90553 0.40608-0.0454 1.2423-0.31203 1.8583-0.59253 1.7137-0.78035 2.8802-1.0736 9.28-2.3325 3.256-0.64054 7.864-1.5944 10.24-2.1198 2.376-0.52535 4.716-0.87726 5.2-0.78201 0.484 0.0952 0.88 0.0328 0.88-0.13883 0-0.4107 0.86621-0.40262 1.1215 0.0105 0.32621 0.52779-0.72745 1.3442-1.4421 1.1174-0.42685-0.13547-0.70697-0.036-0.83449 0.29629-0.10557 0.27512-0.32087 0.42055-0.47844 0.32318-0.44956-0.27785-0.33542 0.0861 0.19261 0.61409 0.61642 0.61641 0.29034 1.4533-0.71523 1.8356-0.48883 0.18584-0.72291 0.47193-0.61539 0.75209 0.37853 0.98646-0.35741 1.1952-7.3084 2.0733-9.4279 1.1909-13.75 1.608-15.138 1.4608-0.88857-0.0942-1.6311 0.0197-2.09 0.32036-1.0212 0.66911-5.9718 0.92946-5.9718 0.31405zm31.68-6.2612c0-0.52222-0.8456-0.30116-1.7191 0.44941-0.47223 0.4058-0.7706 0.82584-0.66301 0.93343 0.24649 0.24648 2.3821-0.99327 2.3821-1.3828zm59.2-5.4281c-0.60848-0.38119-2.2991-1.058-2.7204-1.089-0.17622-0.013-0.6648-0.2648-1.0857-0.55962-0.42093-0.29481-1.4647-0.71529-2.3196-0.93438-1.5123-0.38759-1.5543-0.4308-1.5543-1.5997 0-0.85217 0.19254-1.3362 0.66243-1.6654 0.47479-0.33253 0.54279-0.50655 0.24-0.61419-0.23232-0.0826 3.4656-0.17856 8.2176-0.21324 4.752-0.0347 9.576-0.0729 10.72-0.0849s7.336-9.6e-4 13.76 0.0245c6.424 0.0255 20.248-0.0404 30.72-0.14654l19.04-0.1929-1.0154 0.64787c-0.9584 0.61147-1.8212 0.66675-15.36 0.9842-16.757 0.3929-25.061 0.96794-32.585 2.2564-2.992 0.51243-7.384 1.0925-9.76 1.289-3.6277 0.30002-6.8045 0.72004-15.52 2.0519-0.528 0.0807-1.176 0.0114-1.44-0.154zm77.892-6.4117c-0.53747-0.59391-0.48205-0.60804 2.2988-0.58609 3.5325 0.0279 5.2044 0.56186 1.8629 0.59502-1.2467 0.0124-2.3668 0.12266-2.4893 0.24509-0.44547 0.44549-1.1341 0.3409-1.6725-0.25402zm56.229-2.1838c-0.51799-0.32012 1.6118-1.0486 4.7486-1.6244 1.1378-0.20882 2.8658-0.79224 3.84-1.2965l1.7713-0.91681-2.08 0.16504c-1.144 0.0908-3.808 0.36841-5.92 0.61697-6.4381 0.7577-13.838 1.3828-18.72 1.5814-2.552 0.1038-5.288 0.27485-6.08 0.38009-0.792 0.10525-1.3432 0.0881-1.2249-0.038 0.29367-0.31323 2.4798-0.78455 5.2942-1.1414 1.288-0.1633 3.3874-0.65782 4.6654-1.0989 1.7034-0.58793 3.4858-0.88507 6.6771-1.1131 4.1754-0.29839 7.1074-0.79435 7.7882-1.3174 0.176-0.13522 1.472-0.69694 2.88-1.2483 1.408-0.55133 2.8029-1.2887 3.0999-1.6386s1.5859-1.1206 2.8642-1.7128l2.3243-1.0766-1.2642-0.35099c-0.69529-0.19309-1.6242-0.35404-2.0642-0.35772-0.44-4e-3 -0.98822-0.12606-1.2183-0.27197-0.24496-0.15534 1.0812-0.35489 3.2-0.4815 1.99-0.11891 5.2023-0.57318 7.1383-1.0095 6.6797-1.5053 13.184-1.9205 29.015-1.8525 8.9745 0.0386 15.039 0.19624 16.292 0.4236 2.1889 0.39693 4.4521 1.2046 4.4521 1.5888 0 0.13439-0.554 0.33293-1.231 0.4412-0.6771 0.10827-2.0091 0.54046-2.96 0.96044-2.0956 0.92548-11.11 3.6776-15.414 4.7062-3.3349 0.79691-3.5814 1.3657-0.3946 0.91093 1.056-0.15071 3.216-0.36222 4.8-0.47001 1.584-0.1078 3.888-0.40576 5.12-0.66214s5.624-0.60909 9.76-0.78379c7.8274-0.33064 21.955-0.28661 21.12 0.0658-0.264 0.1114-1.488 0.38569-2.72 0.60954s-3.176 0.80326-4.32 1.2876c-1.144 0.48431-3.232 1.1073-4.64 1.3845-7.5403 1.4842-9.6515 1.7958-12.167 1.7958-2.0659 0-3.3378 0.19367-5.0566 0.76999-5.7008 1.9115-5.4228 1.878-16.809 2.025-10.295 0.13298-12.207 0.0532-12.207-0.50891 0-0.14393 0.972-0.92297 2.16-1.7312 2.2526-1.5325 3.9329-2.1501 5.8579-2.1531 0.6258-9.6e-4 2.0658-0.32579 3.2-0.72179l2.0621-0.72-2.88-0.11383-2.88-0.11383 3.2-0.75078c1.76-0.41292 3.56-0.7599 4-0.77106 0.44-0.0112 1.016-0.17354 1.28-0.36084 0.3426-0.24306-1.3062-0.28898-5.76-0.16042-4.9072 0.14166-6.7526 0.32153-8.64 0.84214-1.32 0.3641-3.336 0.86144-4.48 1.1052-1.144 0.24376-4.168 1.1811-6.72 2.083-4.4765 1.582-10.644 3.207-16.32 4.3-1.496 0.28807-3.0092 0.58453-3.3627 0.6588-0.35347 0.0743-0.83824 0.0142-1.0772-0.13356zm67.932-6.061c1.3815-0.57443 0.6111-1.0743-1.6216-1.0522-1.0288 0.0101-3.5985 0.24249-5.7105 0.51629-2.112 0.27381-4.992 0.62911-6.4 0.78955-1.9846 0.22616-0.8339 0.274 5.12 0.21286 5.1165-0.0525 7.9911-0.20824 8.6121-0.46646zm-498.54 4.2381c0.28496-0.28495 0.42733-0.60895 0.31636-0.72-0.26061-0.26084-6.1844-0.7613-8.4687-0.71546-6.4524 0.12948-33.146-0.0889-33.997-0.27807l-1.0432-0.2321 1.12-0.19197c0.616-0.10558 5.5808-0.2765 11.033-0.37982 13.139-0.24901 18.431-0.95551 27.207-3.6322 2.288-0.69786 4.6522-1.3719 5.2537-1.4978 1.6707-0.34973 0.62313-0.68101-2.8537-0.90244-4.4873-0.28578-19.783-1.3812-32-2.2917-5.896-0.4394-11.944-0.87786-13.44-0.97435-1.496-0.0965-3.296-0.23311-4-0.30361s-2.936-0.23793-4.96-0.37206l-3.68-0.24387 2.24-0.22776c8.9667-0.91173 21.209-2.6548 21.6-3.0753 0.45782-0.4929-14.775 1.0846-22.88 2.3693-1.76 0.279-3.56 0.54972-4 0.6016-0.44 0.0519-2.6364 0.39432-4.8809 0.76098-7.0162 1.1462-38.319 2.7944-38.319 2.0176 0-0.69711 7.0613-3.6617 13.094-5.4972 10.68-3.2496 16.822-5.5178 20.826-7.6902 2.024-1.0982 3.8908-2.1967 4.1486-2.4411 0.40016-0.37954-2.0053-0.44953-16.48-0.47947-15.599-0.0323-16.719-0.0699-14.069-0.47234 1.584-0.2405 5.544-0.58751 8.8-0.77113 3.256-0.18361 6.7063-0.47577 7.6673-0.64923 0.96099-0.17346 4.0414-0.53482 6.8454-0.80302s5.201-0.5512 5.3267-0.62888c0.70265-0.43427 11.657-1.1803 19.752-1.3452l9.3513-0.19046-0.30026 1.0469c-0.16512 0.5758-0.52122 1.3842-0.79133 1.7964-0.27008 0.41222-0.49107 0.79366-0.49107 0.84766 0 0.14901 7.0853-0.3481 8-0.56129 0.44-0.10254 6.416-0.30655 13.28-0.45335 10.699-0.22883 18.681-0.69044 20.267-1.1721 0.31184-0.0947 0.11728-0.68413-0.72-2.1813-0.63101-1.1284-1.1473-2.159-1.1473-2.2904 0-0.30182 25.788 0.13666 28.16 0.47882 1.2112 0.1747-0.78445 0.28196-6.4 0.34401-7.2512 0.0801-7.768 0.11846-4.64 0.34429 1.936 0.13977 5.392 0.47286 7.68 0.7402s6.248 0.63526 8.8 0.8176 5.864 0.54958 7.36 0.81609c1.496 0.26652 4.1466 0.57907 5.8903 0.69457l3.1703 0.20999-1.3023 1.1486c-0.71629 0.63173-1.9885 1.9382-2.8271 2.9033-0.83862 0.96508-1.7488 1.7571-2.0227 1.76-0.27385 3e-3 -0.55065 0.2933-0.6151 0.6453-0.21037 1.149-1.3075 1.9725-3.1833 2.3892-1.0065 0.2236-2.334 0.66282-2.95 0.97605-1.4826 0.75384-3.3138 2.5642-3.8131 3.7698-0.28675 0.69227-0.84566 1.1607-1.9536 1.6373-0.85357 0.3672-1.8162 0.66763-2.1391 0.66763s-1.6463 0.29351-2.9408 0.65225c-2.5764 0.71395-4.9607 2.1619-5.7143 3.4701-0.26541 0.46072-1.3448 1.34-2.3987 1.9538-1.7797 1.0367-2.0012 1.2988-3.1098 3.68-1.8352 3.9419-1.8941 3.9887-5.4518 4.3327-1.6714 0.1616-4.0931 0.29771-5.3817 0.30248-2.1591 8e-3 -2.3022-0.032-1.8248-0.50943zm12.83-8.8474c0.42742-0.50797 0.77712-0.83203 0.77712-0.72014s0.1792 0.0927 0.39824-0.0427c0.25392-0.15692-7e-3 -0.32893-0.71891-0.47461-0.78544-0.16064-1.8894-5e-3 -3.7179 0.52517-1.4304 0.4145-3.1588 0.87158-3.8411 1.0157-1.1596 0.24502-1.0841 0.27429 1.1596 0.44965 4.4636 0.34885 5.0815 0.27054 5.9429-0.7531zm4.273-4.9405c0.62928-0.27936 1.3494-0.54975 1.6002-0.60085 0.25082-0.0511 0.5633-0.28457 0.69437-0.5188 0.13107-0.23422 1.2939-0.92726 2.584-1.5401 1.2901-0.61282 2.3939-1.2231 2.453-1.3562 0.059-0.1331 0.23904-0.1606 0.4-0.0611s0.29267 0.0199 0.29267-0.17689c0-0.19677 0.144-0.26877 0.32-0.16s0.32 0.0453 0.32-0.14111c0-0.18639 0.288-0.33889 0.64-0.33889s0.64-0.144 0.64-0.32 0.20416-0.32 0.4537-0.32c0.24953 0 1.1495-0.34235 2-0.76077 0.85046-0.41842 1.7623-0.83905 2.0263-0.93473 0.66077-0.23949-8.0145-0.38503-16.32-0.27381-6.0622 0.0812-17.551 0.79196-18.88 1.168-0.264 0.0747-2.928 0.3587-5.92 0.63107-5.7759 0.5258-11.857 1.3849-12.62 1.7828-0.25293 0.13194 2.0511 0.16588 5.12 0.0754 4.7167-0.13905 5.5156-0.0967 5.164 0.27376-0.33095 0.34876-2.2792 0.44796-9.5409 0.48578-5.0188 0.0261-9.2236 0.15393-9.3441 0.28397-0.12052 0.13004 0.99872 0.13879 2.4872 0.0195 3.585-0.28744 3.1784 6e-3 -0.63821 0.45986-1.6655 0.19825-4.7516 0.85293-6.858 1.4548-2.1064 0.60191-4.1224 1.126-4.48 1.1647-2.4608 0.26636 16.654 0.45645 34.686 0.34494 18.817-0.11636 21.722-0.19836 22.72-0.64135zm-48.703-2.5273c-0.10633-0.10634-0.38233-0.1177-0.61334-0.0252-0.25526 0.10215-0.17946 0.17798 0.19334 0.19333 0.33732 0.0139 0.52634-0.0617 0.42-0.16807zm66.007-4.6067c0.38816-0.25084 0.34221-0.31114-0.24-0.3151-0.396-3e-3 -0.72 0.1391-0.72 0.3151 0 0.40093 0.33958 0.40093 0.96 0zm344.48 19.198c-1.76-0.13475-13.928-0.33956-27.04-0.45514-22.53-0.19861-29.836-0.48923-30.278-1.2044-0.11443-0.18516 0.43239-0.28747 1.3636-0.25512 0.85507 0.0297 11.527 0.0412 23.715 0.0256l22.16-0.0284v-0.6625c0-0.65678 0.085-0.66205 9.84-0.60991 6.4238 0.0343 10.451-0.076 11.6-0.31767 1.0046-0.21135 7.2538-0.48865 14.56-0.64606 7.04-0.15168 13.664-0.42625 14.72-0.61015 2.786-0.48518 16.406-0.84437 16-0.42196-0.47958 0.49937-4.0783 1.6023-7.0369 2.1567-1.4394 0.26973-4.7039 0.6135-7.2544 0.76394-3.0604 0.18052-4.9591 0.43995-5.5837 0.76296-0.52054 0.26918-2.0216 0.73729-3.3357 1.0402-2.0316 0.46836-4.473 0.5625-16.309 0.62888-7.656 0.0429-15.36-0.0322-17.12-0.16693zm-609.92-4.7714c1.056-0.10241 1.7665-0.28633 1.5788-0.40872s-9.7462-0.29693-21.241-0.38787c-11.495-0.0909-20.951-0.21591-21.012-0.27771-0.10413-0.10413 3.3043-0.81678 7.0748-1.4792 1.6189-0.28442 1.0854-0.46659-1.12-0.38246-0.616 0.0235-3.3152-0.0473-5.9981-0.15735-4.6755-0.19177-5.8123-0.50928-3.4262-0.95693 0.6123-0.11487 1.2192-0.38527 1.3488-0.6009 0.30765-0.51215 1.9338-1.0626 4.7444-1.606 2.8413-0.54932 8.7711-2.3763 8.7711-2.7024 0-0.13402-6.3-0.34265-14-0.46363s-17.6-0.38054-22-0.57682c-4.4-0.19627-10.16-0.34892-12.8-0.33922-4.7474 0.0174-4.7772 0.0132-2.72-0.3917 1.3237-0.26051 6.6178-0.48957 14.56-0.62998 6.864-0.12134 13.92-0.32773 15.68-0.45864 3.6227-0.26946 8.5968 0.14667 16.8 1.4055 5.2981 0.81302 6.4005 1.0357 5.36 1.0826-0.87838 0.0396-0.65512 0.6319 0.32 0.8489 0.484 0.10772 1.1034 0.25508 1.3764 0.32748 0.27302 0.0724 2.073-0.1504 4-0.4951 3.1354-0.56086 15.957-2.3347 19.664-2.7203 1.2023-0.1251 1.0042-0.012-1.2 0.68523-1.452 0.45928-2.64 0.97157-2.64 1.1384 0 0.18776 2.7131 0.23071 7.12 0.1127 3.916-0.10486 14.608-0.26653 23.76-0.35927l16.64-0.16863-1.2533 1.128c-0.68935 0.62037-1.1512 1.2301-1.0263 1.355 0.12487 0.12487 3.6409 0.33797 7.8134 0.47356 4.1724 0.1356 8.7383 0.28543 10.146 0.33296l2.56 0.0864-2.24 0.58786c-1.232 0.32332-3.464 0.65021-4.96 0.72641s-5.888 0.41504-9.76 0.75297c-3.872 0.33792-8.974 0.71495-11.338 0.83784l-4.2977 0.22343 1.193-1.4559c0.65616-0.80075 1.0781-1.5196 0.9377-1.5975-0.30855-0.17114-5.0727 0.54374-15.135 2.2711-4.136 0.70999-8.4494 1.3945-9.5854 1.5211-1.7677 0.19701-1.9522 0.27419-1.28 0.53534 0.44793 0.17402 3.3292 0.24315 6.7054 0.16087l5.92-0.14427-3.84 0.59131c-2.112 0.32521-4.812 0.67435-6 0.77586-2.5719 0.21975-2.8367 0.69284-0.48 0.8577 0.924 0.0646-0.192 0.11996-2.48 0.12293-2.7356 4e-3 -3.5026-0.0584-2.24-0.18081zm547.72-3.3541c0.10932-0.11898 2.4853-0.57801 5.28-1.02 2.7947-0.44205 7.0252-1.2243 9.4012-1.7382 2.376-0.51399 7.128-1.302 10.56-1.7512 6.0012-0.78541 13.326-2.2158 13.853-2.705 0.26156-0.2432-11.257-0.65767-18.278-0.65767-2.2009 0-3.9191-0.0825-3.8182-0.18336 0.21088-0.21088 8.7276-1.2962 21.203-2.7019 4.752-0.53545 11.952-1.606 16-2.3789 21.321-4.0712 25.571-4.4903 10.026-0.98887-3.4615 0.77969-9.0055 2.2807-12.32 3.3357-3.3144 1.0549-6.9623 2.1643-8.1063 2.4653-1.144 0.30099-2.1943 0.64734-2.334 0.76968-0.13968 0.12233 1.5951 0.31601 3.8551 0.43039 3.6004 0.18222 7.7675 0.95012 7.3611 1.3565-0.1576 0.15761-13.111 1.9774-29.442 4.1362-8.0012 1.0577-12.437 1.4821-17.12 1.6377-3.4762 0.11554-6.2309 0.11273-6.1216-6e-3zm-451.72-14.487c-2.112-0.24652-5.352-0.65992-7.2-0.91868-1.848-0.25875-3.792-0.52009-4.32-0.58075-0.528-0.0607 8.688-0.1229 20.48-0.13832l21.44-0.028-4.48 1.0026c-4.3763 0.97943-4.6837 1.0039-13.28 1.057-5.8414 0.0361-10.091-0.0963-12.64-0.39386zm514.72-4.2596-11.68-0.16601l2.56-0.7185c5.8114-1.6311 19.652-2.7972 24.532-2.067 1.2912 0.19318 3.7516 0.44438 5.4676 0.55822s3.12 0.31828 3.12 0.45431c0 0.13602-1.4235 0.69858-3.1634 1.2501-2.7409 0.86889-3.5636 0.99294-6.16 0.92883-1.6481-0.0407-8.2526-0.1487-14.677-0.24z" fill="#ee00f5"  class="cloud__one"/>
 <path d="m279.2 332c-0.176-0.0587-0.72047-0.1952-1.2099-0.30333-0.53-0.11705-1.1443-0.61373-1.5188-1.228-0.84681-1.3889-0.80814-1.5114 0.47688-1.5114 0.60949 0 1.8558-0.29469 2.7696-0.65488 1.146-0.45171 2.9616-0.74637 5.8518-0.9497 2.3047-0.16211 5.4144-0.4399 6.9104-0.61728 1.496-0.1774 4.88-0.45532 7.52-0.6176 4.8551-0.29849 11.372-1.3826 16.64-2.7682 1.7626-0.46358 4.2695-0.8281 6.4614-0.93946 1.9698-0.10009 5.4574-0.53548 7.7504-0.96755 5.5404-1.044 15.708-2.0012 15.708-1.4788 0 0.16 0.4535 0.44903 1.0077 0.64224 1.5695 0.54711 1.8548 0.36791 0.43226-0.27152l-1.28-0.57534 1.6-0.22042c0.88-0.12124 3.04-0.4891 4.8-0.81748s4.7798-0.8314 6.7107-1.1178c1.9309-0.28643 3.5634-0.57347 3.6278-0.63788 0.0644-0.0644-0.21939-0.33142-0.63065-0.59337-1.065-0.67828-3.583-1.1026-8.9078-1.501-2.552-0.19094-5.36-0.55088-6.24-0.79986-0.88-0.24899-2.6539-0.48945-3.942-0.53438l-2.342-0.0817-1.6906 1.831c-0.92982 1.0071-1.8702 1.831-2.0897 1.831-0.21949 0-0.89936 0.2374-1.5108 0.52756-0.99885 0.47399-2.5681 0.51025-15.451 0.35708-8.5961-0.1022-14.567-0.29823-14.909-0.48946-0.53895-0.30161-0.53666-0.32844 0.0422-0.49318 0.33666-0.0958 1.1161-0.27494 1.7321-0.39804s2.056-0.69252 3.2-1.2654c3.1259-1.5653 7.4067-3.2796 8.8228-3.5333 0.69148-0.12387 2.2652-0.73198 3.4972-1.3514 4.5156-2.2702 10.661-2.9268 27.549-2.9438 7.9814-8e-3 10.26-0.1063 11.52-0.49676 1.4529-0.45019 7.0108-1.427 8.144-1.4314 0.40077-2e-3 0.49066 0.4383 0.48 2.3486-8e-3 1.4316 0.14365 2.5395 0.38794 2.8341 0.26329 0.31748 1.2825 0.5571 2.9673 0.69761 1.4114 0.11771 3.679 0.42117 5.0389 0.67435 8.1353 1.5146 16.644 1.4601 25.353-0.16238 10.329-1.9243 14.334-2.5545 18.08-2.8447 7.8485-0.60793 18.242-1.9403 21.059-2.6997 4.571-1.2321 4.2846-1.4857-1.715-1.5188l-5.264-0.029 2.88-0.76996c2.6279-0.70255 10.831-1.6417 11.728-1.3428 0.20448 0.0682-0.46932 0.54845-1.4973 1.0673l-1.8691 0.94338 4.4592 0.20095c2.4526 0.11053 8.0592 0.2296 12.459 0.2646 7.1087 0.0565 7.8574 0.11063 6.72 0.48549l-1.28 0.42185 1.28 0.0283c3.2103 0.0711 8.5038-0.62409 11.52-1.5129 2.4167-0.71215 4.4141-1.0334 8.16-1.3122 2.728-0.20311 6.688-0.56852 8.8-0.81203s4.992-0.53266 6.4-0.64254c1.408-0.10989 2.956-0.27462 3.44-0.36609 0.51923-0.0981 0.88-0.0247 0.88 0.17913 0 0.18998-0.33024 0.34542-0.73382 0.34542-1.1771 0-5.9756 1.4868-8.563 2.6532-1.447 0.65231-3.6401 1.2918-5.5831 1.6279-1.76 0.30446-5.144 0.99227-7.52 1.5285s-5.544 1.1725-7.04 1.4141l-2.72 0.43918 5.6-0.14074c6.3071-0.15853 8.8312-0.43079 16.16-1.7431 2.816-0.50424 5.84-1.0128 6.72-1.1301s3.544-0.70725 5.92-1.311 4.752-1.1008 5.28-1.1045c0.528-4e-3 1.8386-0.1909 2.9123-0.416l1.9524-0.40928-0.92294 1.4559c-0.80845 1.2753-1.1896 1.5468-3.0724 2.1882-1.1822 0.40276-4.4534 1.2216-7.2694 1.8197-6.0008 1.2744-17.572 4.2054-23.04 5.8361-3.7196 1.1092-8.1692 3.0888-10.503 4.6728l-1.1362 0.77107-24.58 0.18442c-15.449 0.1159-25.076 0.30902-25.915 0.5199-1.1852 0.29798-1.4897 0.24688-2.72-0.45651-0.76198-0.43562-1.7764-0.79377-2.2542-0.79589-0.49996-2e-3 -0.99718-0.24383-1.1713-0.56917-0.28595-0.5343-3.3207-1.867-6.9618-3.0572-1.5141-0.49495-1.7374-0.49679-2.8698-0.0236-0.70579 0.29489-2.3275 1.6555-3.8136 3.1996l-2.5857 2.6865h-2.0933c-1.1513 0-3.1604 0.26451-4.4645 0.5878-1.3042 0.3233-3.5952 0.83904-5.0912 1.1461-1.496 0.3071-3.656 0.78304-4.8 1.0577-1.5969 0.38333-14.561 1.1812-14.938 0.91936-0.032-0.0221 1.2996-1.0462 2.9589-2.2756 1.6593-1.2294 3.0174-2.3433 3.018-2.4753 0-0.3201-0.27136-0.304-3.9989 0.23606-1.76 0.25501-5.144 0.48256-7.52 0.5057-4.6724 0.0455-7.6622 0.52582-3.68 0.59123 2.4597 0.0404 2.406 0.32739-0.2104 1.1222-1.1762 0.35732-2.2068 0.39053-4.8892 0.15764-3.1696-0.27524-3.8838-0.46916-7.7804-2.1126-0.77347-0.32621-0.3904 0.44141 0.4 0.80154 1.3996 0.63772 1.0106 1.5228-1.36 3.0945-1.188 0.78768-2.8759 1.9377-3.7508 2.5557-2.9742 2.1007-1.9612 2.0257-29.609 2.1934-21.208 0.12864-25.743 0.2368-29.12 0.69437-2.2 0.29808-4.4856 0.7441-5.0791 0.99111-1.0033 0.4176-2.3278 0.54307-3.0809 0.29184zm452.24-9.2266c-0.25175-0.20688-0.83776-1.045-1.3022-1.8624-1.359-2.3917-2.4883-3.1537-4.6739-3.1537-2.9308 0-3.5511-0.3543-4.7818-2.7312-1.328-2.5647-1.9528-3.0703-4.9081-3.9716-5.4582-1.6647-7.4878-2.83-7.8198-4.49-0.27904-1.3953-1.0865-1.9282-3.8575-2.5458-1.3793-0.30747-3.3692-0.93271-4.4219-1.3894-1.0527-0.45672-2.274-0.93087-2.714-1.0536-0.81478-0.22736-3.2608-2.2219-3.4814-2.8388-0.0668-0.18675-0.3736-0.91554-0.68185-1.6195-0.30826-0.704-0.64989-1.568-0.7592-1.92-0.10928-0.352-1.0395-1.4966-2.0672-2.5435l-1.8685-1.9035 0.892-0.75056c0.4906-0.4128 0.97904-1.0249 1.0854-1.3602 0.11165-0.35172 0.38138-0.53753 0.6376-0.43921 0.61783 0.23709 3.325-0.34352 9.1231-1.9567 5.393-1.5004 14.646-3.4643 18.72-3.9732 1.408-0.17588 3.784-0.61429 5.28-0.97423 1.496-0.35995 3.368-0.66144 4.16-0.66999 2.7143-0.0293 11.747-1.4492 10.88-1.7103-0.62038-0.18692 0.13395-0.44235 3.36-1.1377 4.7948-1.0336 8.16-1.9587 8.16-2.2433 0-0.31033-10.309-0.0395-14.56 0.38246-2.112 0.20966-5.712 0.40403-8 0.43193s-4.808 0.23083-5.6 0.45093c-1.1229 0.31206-1.935 0.31865-3.6877 0.0299-2.3483-0.38687-16.178-0.0421-24.312 0.60602-2.112 0.16829-5.568 0.30958-7.68 0.31399-3.7169 8e-3 -7.6931 0.51394-10.394 1.3232-1.2941 0.38772-1.3222 0.3784-2.6033-0.86205-1.1534-1.1169-4.6199-5.8032-4.9803-6.7328-0.0765-0.19734 0.50477-0.73612 1.2917-1.1973 0.9759-0.57193 1.6176-1.2502 2.0184-2.1335 0.53379-1.1763 0.67565-1.2795 1.5476-1.1264 1.7155 0.30127 19.123 0.16746 21.92-0.1685 3.093-0.37146 4.7217-0.76101 9.92-2.3726 3.2946-1.0214 4.2665-1.1739 9.28-1.4563 10.834-0.61009 33.383-3.3647 40.8-4.9841 2.816-0.61485 6.632-1.3211 8.48-1.5694 1.848-0.24832 3.792-0.52034 4.32-0.6045 1.1307-0.18022 1.5159-0.37676-4.48 2.2859-5.8417 2.5942-9.7864 4.6461-9.6602 5.0247 0.079 0.23706 10.129 0.37157 33.047 0.44228l32.933 0.1016-3.1348 0.77541c-4.7284 1.1696-9.9942 1.9548-34.465 5.1393-4.84 0.62985-11.104 1.3238-13.92 1.542-4.691 0.36358-5.5959 0.54193-10.8 2.1284-3.1239 0.95238-5.6799 1.8396-5.68 1.9716-1.2e-4 0.132 3.4918 0.25475 7.7598 0.27278l7.76 0.0328-8 0.76246c-4.4 0.41936-9.838 1.0526-12.085 1.4072-2.2465 0.35462-4.451 0.64476-4.8989 0.64476-0.46137 0-0.7286 0.13868-0.61654 0.32 0.12992 0.21022 13.446 0.32933 38.819 0.34721 31.529 0.0222 38.32 0.10039 36.979 0.42572-0.90333 0.21918-2.1273 0.62606-2.72 0.90417-0.59264 0.27811-2.4455 1.0271-4.1175 1.6644-4.2995 1.6388-4.1846 1.5822-5.6384 2.776-0.72509 0.59542-1.6251 1.2944-2 1.5532-0.87238 0.60234-0.88077 1.0757-0.0141 0.80064 0.58519-0.18573 0.62579-0.13396 0.32935 0.41996-0.72064 1.3465-2.5321 1.7238-14.917 3.1064-8.3284 0.92976-18.21 3.2696-19.824 4.6941-0.1672 0.14755 4.2968 0.26666 9.92 0.26469l10.224-4e-3 7.2-1.4199 7.2-1.4199 0.47948 0.70346c0.26375 0.3869 0.94775 1.126 1.52 1.6423 0.57229 0.51639 1.0405 1.1038 1.0405 1.3054s0.30944 0.3551 0.68761 0.34112c0.8728-0.0323 1.1574 0.70599 0.37901 0.98306-0.32266 0.11485-0.83546 0.42238-1.1396 0.68341-0.59472 0.51041-2.0783 0.79055-2.2987 0.43403-0.0739-0.11959-1.4065-0.18556-2.9614-0.1466-2.5789 0.0646-4.3002 0.37137-6.027 1.0741-0.352 0.14325-1.648 0.57796-2.88 0.96603s-2.807 0.97446-3.5001 1.3031c-0.69306 0.32861-1.4491 0.59748-1.68 0.59748s-0.4199 0.27452-0.4199 0.61005c0 0.45673-0.16426 0.56708-0.65364 0.43911-0.4463-0.11671-0.62393-0.0311-0.56 0.26996 0.0606 0.28543-0.1559 0.41478-0.61404 0.36684-0.49264-0.0515-0.65536 0.0623-0.53552 0.37454 0.11049 0.28795-0.0828 0.48635-0.53965 0.55404-0.39149 0.058-0.8705 0.39346-1.0645 0.74546-0.43552 0.79032-0.88167 1.1275-1.2174 0.92-0.14038-0.0868-0.25526 3e-3 -0.25526 0.2 0 0.19678-0.15031 0.26488-0.33402 0.15134s-0.50771-0.0671-0.72 0.1032c-0.21229 0.17029-0.88998 0.38783-1.506 0.48342-0.616 0.0956-10.048 1.6907-20.96 3.5446-10.912 1.854-21.28 3.6114-23.04 3.9054-4.3353 0.72427-4.147 0.64085-3.3583 1.4881 0.87469 0.93966 1.2422 0.95382 6.5583 0.25261 6.994-0.92251 8.4817-1.0375 7.52-0.58132-0.44 0.20872-1.2831 0.88949-1.8735 1.5128l-1.0735 1.1333-4.0465 0.18903c-3.5672 0.16665-4.0275 0.23129-3.0065 0.4223 0.57104 0.10684 1.0348 0.58454 0.85312 0.87862-0.10916 0.17661 0.0524 0.27399 0.36156 0.21789 0.3074-0.0558 0.62855 0.0986 0.71364 0.34314 0.0894 0.2568 0.0115 0.35597-0.18471 0.23478-0.18665-0.11536-0.41917-0.0807-0.51664 0.077-0.16512 0.26713-2.88 1.261-4.0785 1.493-0.29229 0.0566-0.73744-0.0664-0.98922-0.27325zm-0.46112-11.264c1.9105-0.43128 6.882-1.7852 11.048-3.0088 6.5395-1.9207 15.867-4.4726 26.029-7.1209 1.5264-0.39779 2.7059-0.83553 2.6211-0.97274s-1.949-0.24947-4.1428-0.24947h-3.9885l1.3087-1.6556c0.80557-1.0191 1.8849-1.9321 2.8074-2.3748l1.4988-0.71914-23.95-0.0253c-23.543-0.0248-23.988-0.0137-26.19 0.65494-2.7155 0.82481-6.214 0.72566-8.1474-0.23089-1.1048-0.54663-1.3704-0.56594-2.514-0.18284-1.0386 0.34795-1.6757 0.35508-3.3943 0.038-1.1889-0.21936-2.7582-0.29402-3.5824-0.17043-1.4165 0.21242-1.4484 0.24121-0.93315 0.84297 0.29341 0.34267 0.6903 0.62304 0.88201 0.62304 0.19168 0 0.63677 0.26852 0.98903 0.59672 1.1462 1.0679 1.8253 1.2426 5.71 1.4688 2.1064 0.12265 3.9462 0.29495 4.0885 0.3829 0.14227 0.0879 0.21888 0.39953 0.17021 0.69242-0.0734 0.44179 0.32048 0.56998 2.3115 0.75225 6.6829 0.61179 7.472 0.70647 6.88 0.82555-0.91552 0.18415-3.5278 1.1573-5.751 2.1423l-1.911 0.84672 2.3728 1.4069c1.305 0.77379 2.4926 1.3329 2.639 1.2424 0.1464-0.0905 0.22659 0.0262 0.17824 0.25929-0.0484 0.23309 0.0921 0.38779 0.31206 0.34379 0.22-0.044 0.4 0.088 0.4 0.29333 0 0.20534 0.0807 0.29261 0.17939 0.19394 0.0987-0.0987 0.53187 0.17309 0.96269 0.6039 0.43085 0.43085 0.94832 0.6813 1.15 0.55662 0.21251-0.13135 0.27987-0.0861 0.16013 0.10764-0.2032 0.32878 1.9352 1.5707 2.4515 1.4238 0.14508-0.0413 0.17705 0.0653 0.071 0.2368-0.22132 0.35812 0.91737 1.0651 1.2231 0.75939 0.11114-0.11114 0.20208-0.0449 0.20208 0.14713 0 0.44767 1.426 0.26981 5.8582-0.73069zm-20.69-10.587c-0.0262-0.0194-1.0558-0.12174-2.2878-0.22734l-2.24-0.192 1.2406 0.75967c1.1969 0.73293 1.2774 0.74093 2.2878 0.22734 0.57594-0.29279 1.0257-0.54824 0.9994-0.56767zm34.672 17.945c0-0.61012 1.8735-1.557 2.9343-1.4829 0.58253 0.0406 1.0603-0.20223 1.5017-0.76338 0.35606-0.45265 0.97962-0.86014 1.3857-0.90553 0.40608-0.0454 1.2423-0.31203 1.8583-0.59253 1.7137-0.78035 2.8802-1.0736 9.28-2.3325 3.256-0.64054 7.864-1.5944 10.24-2.1198 2.376-0.52535 4.716-0.87726 5.2-0.78201 0.484 0.0952 0.88 0.0328 0.88-0.13883 0-0.4107 0.86621-0.40262 1.1215 0.0105 0.32621 0.52779-0.72745 1.3442-1.4421 1.1174-0.42685-0.13547-0.70697-0.036-0.83449 0.29629-0.10557 0.27512-0.32087 0.42055-0.47844 0.32318-0.44956-0.27785-0.33542 0.0861 0.19261 0.61409 0.61642 0.61641 0.29034 1.4533-0.71523 1.8356-0.48883 0.18584-0.72291 0.47193-0.61539 0.75209 0.37853 0.98646-0.35741 1.1952-7.3084 2.0733-9.4279 1.1909-13.75 1.608-15.138 1.4608-0.88857-0.0942-1.6311 0.0197-2.09 0.32036-1.0212 0.66911-5.9718 0.92946-5.9718 0.31405zm31.68-6.2612c0-0.52222-0.8456-0.30116-1.7191 0.44941-0.47223 0.4058-0.7706 0.82584-0.66301 0.93343 0.24649 0.24648 2.3821-0.99327 2.3821-1.3828zm59.2-5.4281c-0.60848-0.38119-2.2991-1.058-2.7204-1.089-0.17622-0.013-0.6648-0.2648-1.0857-0.55962-0.42093-0.29481-1.4647-0.71529-2.3196-0.93438-1.5123-0.38759-1.5543-0.4308-1.5543-1.5997 0-0.85217 0.19254-1.3362 0.66243-1.6654 0.47479-0.33253 0.54279-0.50655 0.24-0.61419-0.23232-0.0826 3.4656-0.17856 8.2176-0.21324 4.752-0.0347 9.576-0.0729 10.72-0.0849s7.336-9.6e-4 13.76 0.0245c6.424 0.0255 20.248-0.0404 30.72-0.14654l19.04-0.1929-1.0154 0.64787c-0.9584 0.61147-1.8212 0.66675-15.36 0.9842-16.757 0.3929-25.061 0.96794-32.585 2.2564-2.992 0.51243-7.384 1.0925-9.76 1.289-3.6277 0.30002-6.8045 0.72004-15.52 2.0519-0.528 0.0807-1.176 0.0114-1.44-0.154zm77.892-6.4117c-0.53747-0.59391-0.48205-0.60804 2.2988-0.58609 3.5325 0.0279 5.2044 0.56186 1.8629 0.59502-1.2467 0.0124-2.3668 0.12266-2.4893 0.24509-0.44547 0.44549-1.1341 0.3409-1.6725-0.25402zm-374.38-4.0067c0.28496-0.28495 0.42733-0.60895 0.31636-0.72-0.26061-0.26084-6.1844-0.7613-8.4687-0.71546-6.4524 0.12948-33.146-0.0889-33.997-0.27807l-1.0432-0.2321 1.12-0.19197c0.616-0.10558 5.5808-0.2765 11.033-0.37982 13.139-0.24901 18.431-0.95551 27.207-3.6322 2.288-0.69786 4.6522-1.3719 5.2537-1.4978 1.6707-0.34973 0.62313-0.68101-2.8537-0.90244-4.4873-0.28578-19.783-1.3812-32-2.2917-5.896-0.4394-11.944-0.87786-13.44-0.97435-1.496-0.0965-3.296-0.23311-4-0.30361s-2.936-0.23793-4.96-0.37206l-3.68-0.24387 2.24-0.22776c8.9667-0.91173 21.209-2.6548 21.6-3.0753 0.45782-0.4929-14.775 1.0846-22.88 2.3693-1.76 0.279-3.56 0.54972-4 0.6016-0.44 0.0519-2.6364 0.39432-4.8809 0.76098-7.0162 1.1462-38.319 2.7944-38.319 2.0176 0-0.69711 7.0613-3.6617 13.094-5.4972 10.68-3.2496 16.822-5.5178 20.826-7.6902 2.024-1.0982 3.8908-2.1967 4.1486-2.4411 0.40016-0.37954-2.0053-0.44953-16.48-0.47947-15.599-0.0323-16.719-0.0699-14.069-0.47234 1.584-0.2405 5.544-0.58751 8.8-0.77113 3.256-0.18361 6.7063-0.47577 7.6673-0.64923 0.96099-0.17346 4.0414-0.53482 6.8454-0.80302s5.201-0.5512 5.3267-0.62888c0.70265-0.43427 11.657-1.1803 19.752-1.3452l9.3513-0.19046-0.30026 1.0469c-0.16512 0.5758-0.52122 1.3842-0.79133 1.7964-0.27008 0.41222-0.49107 0.79366-0.49107 0.84766 0 0.14901 7.0853-0.3481 8-0.56129 0.44-0.10254 6.416-0.30655 13.28-0.45335 10.699-0.22883 18.681-0.69044 20.267-1.1721 0.31184-0.0947 0.11728-0.68413-0.72-2.1813-0.63101-1.1284-1.1473-2.159-1.1473-2.2904 0-0.30182 25.788 0.13666 28.16 0.47882 1.2112 0.1747-0.78445 0.28196-6.4 0.34401-7.2512 0.0801-7.768 0.11846-4.64 0.34429 1.936 0.13977 5.392 0.47286 7.68 0.7402s6.248 0.63526 8.8 0.8176 5.864 0.54958 7.36 0.81609c1.496 0.26652 4.1466 0.57907 5.8903 0.69457l3.1703 0.20999-1.3023 1.1486c-0.71629 0.63173-1.9885 1.9382-2.8271 2.9033-0.83862 0.96508-1.7488 1.7571-2.0227 1.76-0.27385 3e-3 -0.55065 0.2933-0.6151 0.6453-0.21037 1.149-1.3075 1.9725-3.1833 2.3892-1.0065 0.2236-2.334 0.66282-2.95 0.97605-1.4826 0.75384-3.3138 2.5642-3.8131 3.7698-0.28675 0.69227-0.84566 1.1607-1.9536 1.6373-0.85357 0.3672-1.8162 0.66763-2.1391 0.66763s-1.6463 0.29351-2.9408 0.65225c-2.5764 0.71395-4.9607 2.1619-5.7143 3.4701-0.26541 0.46072-1.3448 1.34-2.3987 1.9538-1.7797 1.0367-2.0012 1.2988-3.1098 3.68-1.8352 3.9419-1.8941 3.9887-5.4518 4.3327-1.6714 0.1616-4.0931 0.29771-5.3817 0.30248-2.1591 8e-3 -2.3022-0.032-1.8248-0.50943zm12.83-8.8474c0.42742-0.50797 0.77712-0.83203 0.77712-0.72014s0.1792 0.0927 0.39824-0.0427c0.25392-0.15692-7e-3 -0.32893-0.71891-0.47461-0.78544-0.16064-1.8894-5e-3 -3.7179 0.52517-1.4304 0.4145-3.1588 0.87158-3.8411 1.0157-1.1596 0.24502-1.0841 0.27429 1.1596 0.44965 4.4636 0.34885 5.0815 0.27054 5.9429-0.7531zm4.273-4.9405c0.62928-0.27936 1.3494-0.54975 1.6002-0.60085 0.25082-0.0511 0.5633-0.28457 0.69437-0.5188 0.13107-0.23422 1.2939-0.92726 2.584-1.5401 1.2901-0.61282 2.3939-1.2231 2.453-1.3562 0.059-0.1331 0.23904-0.1606 0.4-0.0611s0.29267 0.0199 0.29267-0.17689c0-0.19677 0.144-0.26877 0.32-0.16s0.32 0.0453 0.32-0.14111c0-0.18639 0.288-0.33889 0.64-0.33889s0.64-0.144 0.64-0.32 0.20416-0.32 0.4537-0.32c0.24953 0 1.1495-0.34235 2-0.76077 0.85046-0.41842 1.7623-0.83905 2.0263-0.93473 0.66077-0.23949-8.0145-0.38503-16.32-0.27381-6.0622 0.0812-17.551 0.79196-18.88 1.168-0.264 0.0747-2.928 0.3587-5.92 0.63107-5.7759 0.5258-11.857 1.3849-12.62 1.7828-0.25293 0.13194 2.0511 0.16588 5.12 0.0754 4.7167-0.13905 5.5156-0.0967 5.164 0.27376-0.33095 0.34876-2.2792 0.44796-9.5409 0.48578-5.0188 0.0261-9.2236 0.15393-9.3441 0.28397-0.12052 0.13004 0.99872 0.13879 2.4872 0.0195 3.585-0.28744 3.1784 6e-3 -0.63821 0.45986-1.6655 0.19825-4.7516 0.85293-6.858 1.4548-2.1064 0.60191-4.1224 1.126-4.48 1.1647-2.4608 0.26636 16.654 0.45645 34.686 0.34494 18.817-0.11636 21.722-0.19836 22.72-0.64135zm-48.703-2.5273c-0.10633-0.10634-0.38233-0.1177-0.61334-0.0252-0.25526 0.10215-0.17946 0.17798 0.19334 0.19333 0.33732 0.0139 0.52634-0.0617 0.42-0.16807zm66.007-4.6067c0.38816-0.25084 0.34221-0.31114-0.24-0.3151-0.396-3e-3 -0.72 0.1391-0.72 0.3151 0 0.40093 0.33958 0.40093 0.96 0zm344.48 19.198c-1.76-0.13475-13.928-0.33956-27.04-0.45514-22.53-0.19861-29.836-0.48923-30.278-1.2044-0.11443-0.18516 0.43239-0.28747 1.3636-0.25512 0.85507 0.0297 11.527 0.0412 23.715 0.0256l22.16-0.0284v-0.6625c0-0.65678 0.085-0.66205 9.84-0.60991 6.4238 0.0343 10.451-0.076 11.6-0.31767 1.0046-0.21135 7.2538-0.48865 14.56-0.64606 7.04-0.15168 13.664-0.42625 14.72-0.61015 2.786-0.48518 16.406-0.84437 16-0.42196-0.47958 0.49937-4.0783 1.6023-7.0369 2.1567-1.4394 0.26973-4.7039 0.6135-7.2544 0.76394-3.0604 0.18052-4.9591 0.43995-5.5837 0.76296-0.52054 0.26918-2.0216 0.73729-3.3357 1.0402-2.0316 0.46836-4.473 0.5625-16.309 0.62888-7.656 0.0429-15.36-0.0322-17.12-0.16693zm-609.92-4.7714c1.056-0.10241 1.7665-0.28633 1.5788-0.40872s-9.7462-0.29693-21.241-0.38787c-11.495-0.0909-20.951-0.21591-21.012-0.27771-0.10413-0.10413 3.3043-0.81678 7.0748-1.4792 1.6189-0.28442 1.0854-0.46659-1.12-0.38246-0.616 0.0235-3.3152-0.0473-5.9981-0.15735-4.6755-0.19177-5.8123-0.50928-3.4262-0.95693 0.6123-0.11487 1.2192-0.38527 1.3488-0.6009 0.30765-0.51215 1.9338-1.0626 4.7444-1.606 2.8413-0.54932 8.7711-2.3763 8.7711-2.7024 0-0.13402-6.3-0.34265-14-0.46363s-17.6-0.38054-22-0.57682c-4.4-0.19627-10.16-0.34892-12.8-0.33922-4.7474 0.0174-4.7772 0.0132-2.72-0.3917 1.3237-0.26051 6.6178-0.48957 14.56-0.62998 6.864-0.12134 13.92-0.32773 15.68-0.45864 3.6227-0.26946 8.5968 0.14667 16.8 1.4055 5.2981 0.81302 6.4005 1.0357 5.36 1.0826-0.87838 0.0396-0.65512 0.6319 0.32 0.8489 0.484 0.10772 1.1034 0.25508 1.3764 0.32748 0.27302 0.0724 2.073-0.1504 4-0.4951 3.1354-0.56086 15.957-2.3347 19.664-2.7203 1.2023-0.1251 1.0042-0.012-1.2 0.68523-1.452 0.45928-2.64 0.97157-2.64 1.1384 0 0.18776 2.7131 0.23071 7.12 0.1127 3.916-0.10486 14.608-0.26653 23.76-0.35927l16.64-0.16863-1.2533 1.128c-0.68935 0.62037-1.1512 1.2301-1.0263 1.355 0.12487 0.12487 3.6409 0.33797 7.8134 0.47356 4.1724 0.1356 8.7383 0.28543 10.146 0.33296l2.56 0.0864-2.24 0.58786c-1.232 0.32332-3.464 0.65021-4.96 0.72641s-5.888 0.41504-9.76 0.75297c-3.872 0.33792-8.974 0.71495-11.338 0.83784l-4.2977 0.22343 1.193-1.4559c0.65616-0.80075 1.0781-1.5196 0.9377-1.5975-0.30855-0.17114-5.0727 0.54374-15.135 2.2711-4.136 0.70999-8.4494 1.3945-9.5854 1.5211-1.7677 0.19701-1.9522 0.27419-1.28 0.53534 0.44793 0.17402 3.3292 0.24315 6.7054 0.16087l5.92-0.14427-3.84 0.59131c-2.112 0.32521-4.812 0.67435-6 0.77586-2.5719 0.21975-2.8367 0.69284-0.48 0.8577 0.924 0.0646-0.192 0.11996-2.48 0.12293-2.7356 4e-3 -3.5026-0.0584-2.24-0.18081zm547.72-3.3541c0.10932-0.11898 2.4853-0.57801 5.28-1.02 2.7947-0.44205 7.0252-1.2243 9.4012-1.7382 2.376-0.51399 7.128-1.302 10.56-1.7512 6.0012-0.78541 13.326-2.2158 13.853-2.705 0.26156-0.2432-11.257-0.65767-18.278-0.65767-2.2009 0-3.9191-0.0825-3.8182-0.18336 0.21088-0.21088 8.7276-1.2962 21.203-2.7019 4.752-0.53545 11.952-1.606 16-2.3789 21.321-4.0712 25.571-4.4903 10.026-0.98887-3.4615 0.77969-9.0055 2.2807-12.32 3.3357-3.3144 1.0549-6.9623 2.1643-8.1063 2.4653-1.144 0.30099-2.1943 0.64734-2.334 0.76968-0.13968 0.12233 1.5951 0.31601 3.8551 0.43039 3.6004 0.18222 7.7675 0.95012 7.3611 1.3565-0.1576 0.15761-13.111 1.9774-29.442 4.1362-8.0012 1.0577-12.437 1.4821-17.12 1.6377-3.4762 0.11554-6.2309 0.11273-6.1216-6e-3zm-451.72-14.487c-2.112-0.24652-5.352-0.65992-7.2-0.91868-1.848-0.25875-3.792-0.52009-4.32-0.58075-0.528-0.0607 8.688-0.1229 20.48-0.13832l21.44-0.028-4.48 1.0026c-4.3763 0.97943-4.6837 1.0039-13.28 1.057-5.8414 0.0361-10.091-0.0963-12.64-0.39386zm514.72-4.2596-11.68-0.16601l2.56-0.7185c5.8114-1.6311 19.652-2.7972 24.532-2.067 1.2912 0.19318 3.7516 0.44438 5.4676 0.55822s3.12 0.31828 3.12 0.45431c0 0.13602-1.4235 0.69858-3.1634 1.2501-2.7409 0.86889-3.5636 0.99294-6.16 0.92883-1.6481-0.0407-8.2526-0.1487-14.677-0.24z" fill="#e0ee11"  class="cloud__two"/>
 <path d="m731.44 322.78c-0.25175-0.20688-0.83776-1.045-1.3022-1.8624-1.359-2.3917-2.4883-3.1537-4.6739-3.1537-2.9308 0-3.5511-0.3543-4.7818-2.7312-1.328-2.5647-1.9528-3.0703-4.9081-3.9716-5.4582-1.6647-7.4878-2.83-7.8198-4.49-0.27904-1.3953-1.0865-1.9282-3.8575-2.5458-1.3793-0.30747-3.3692-0.93271-4.4219-1.3894-1.0527-0.45672-2.274-0.93087-2.714-1.0536-0.81478-0.22736-3.2608-2.2219-3.4814-2.8388-0.0668-0.18675-0.3736-0.91554-0.68185-1.6195-0.30826-0.704-0.64989-1.568-0.7592-1.92-0.10928-0.352-1.0395-1.4966-2.0672-2.5435l-1.8685-1.9035 0.892-0.75056c0.4906-0.4128 0.97904-1.0249 1.0854-1.3602 0.11165-0.35172 0.38138-0.53753 0.6376-0.43921 0.61783 0.23709 3.325-0.34352 9.1231-1.9567 5.393-1.5004 14.646-3.4643 18.72-3.9732 1.408-0.17588 3.784-0.61429 5.28-0.97423 1.496-0.35995 3.368-0.66144 4.16-0.66999 2.7143-0.0293 11.747-1.4492 10.88-1.7103-0.62038-0.18692 0.13395-0.44235 3.36-1.1377 4.7948-1.0336 8.16-1.9587 8.16-2.2433 0-0.31033-10.309-0.0395-14.56 0.38246-2.112 0.20966-5.712 0.40403-8 0.43193s-4.808 0.23083-5.6 0.45093c-1.1229 0.31206-1.935 0.31865-3.6877 0.0299-2.3483-0.38687-16.178-0.0421-24.312 0.60602-2.112 0.16829-5.568 0.30958-7.68 0.31399-3.7169 8e-3 -7.6931 0.51394-10.394 1.3232-1.2941 0.38772-1.3222 0.3784-2.6033-0.86205-1.1534-1.1169-4.6199-5.8032-4.9803-6.7328-0.0765-0.19734 0.50477-0.73612 1.2917-1.1973 0.9759-0.57193 1.6176-1.2502 2.0184-2.1335 0.53379-1.1763 0.67565-1.2795 1.5476-1.1264 1.7155 0.30127 19.123 0.16746 21.92-0.1685 3.093-0.37146 4.7217-0.76101 9.92-2.3726 3.2946-1.0214 4.2665-1.1739 9.28-1.4563 10.834-0.61009 33.383-3.3647 40.8-4.9841 2.816-0.61485 6.632-1.3211 8.48-1.5694 1.848-0.24832 3.792-0.52034 4.32-0.6045 1.1307-0.18022 1.5159-0.37676-4.48 2.2859-5.8417 2.5942-9.7864 4.6461-9.6602 5.0247 0.079 0.23706 10.129 0.37157 33.047 0.44228l32.933 0.1016-3.1348 0.77541c-4.7284 1.1696-9.9942 1.9548-34.465 5.1393-4.84 0.62985-11.104 1.3238-13.92 1.542-4.691 0.36358-5.5959 0.54193-10.8 2.1284-3.1239 0.95238-5.6799 1.8396-5.68 1.9716-1.2e-4 0.132 3.4918 0.25475 7.7598 0.27278l7.76 0.0328-8 0.76246c-4.4 0.41936-9.838 1.0526-12.085 1.4072-2.2465 0.35462-4.451 0.64476-4.8989 0.64476-0.46137 0-0.7286 0.13868-0.61654 0.32 0.12992 0.21022 13.446 0.32933 38.819 0.34721 31.529 0.0222 38.32 0.10039 36.979 0.42572-0.90333 0.21918-2.1273 0.62606-2.72 0.90417-0.59264 0.27811-2.4455 1.0271-4.1175 1.6644-4.2995 1.6388-4.1846 1.5822-5.6384 2.776-0.72509 0.59542-1.6251 1.2944-2 1.5532-0.87238 0.60234-0.88077 1.0757-0.0141 0.80064 0.58519-0.18573 0.62579-0.13396 0.32935 0.41996-0.72064 1.3465-2.5321 1.7238-14.917 3.1064-8.3284 0.92976-18.21 3.2696-19.824 4.6941-0.1672 0.14755 4.2968 0.26666 9.92 0.26469l10.224-4e-3 7.2-1.4199 7.2-1.4199 0.47948 0.70346c0.26375 0.3869 0.94775 1.126 1.52 1.6423 0.57229 0.51639 1.0405 1.1038 1.0405 1.3054s0.30944 0.3551 0.68761 0.34112c0.8728-0.0323 1.1574 0.70599 0.37901 0.98306-0.32266 0.11485-0.83546 0.42238-1.1396 0.68341-0.59472 0.51041-2.0783 0.79055-2.2987 0.43403-0.0739-0.11959-1.4065-0.18556-2.9614-0.1466-2.5789 0.0646-4.3002 0.37137-6.027 1.0741-0.352 0.14325-1.648 0.57796-2.88 0.96603s-2.807 0.97446-3.5001 1.3031c-0.69306 0.32861-1.4491 0.59748-1.68 0.59748s-0.4199 0.27452-0.4199 0.61005c0 0.45673-0.16426 0.56708-0.65364 0.43911-0.4463-0.11671-0.62393-0.0311-0.56 0.26996 0.0606 0.28543-0.1559 0.41478-0.61404 0.36684-0.49264-0.0515-0.65536 0.0623-0.53552 0.37454 0.11049 0.28795-0.0828 0.48635-0.53965 0.55404-0.39149 0.058-0.8705 0.39346-1.0645 0.74546-0.43552 0.79032-0.88167 1.1275-1.2174 0.92-0.14038-0.0868-0.25526 3e-3 -0.25526 0.2 0 0.19678-0.15031 0.26488-0.33402 0.15134s-0.50771-0.0671-0.72 0.1032c-0.21229 0.17029-0.88998 0.38783-1.506 0.48342-0.616 0.0956-10.048 1.6907-20.96 3.5446-10.912 1.854-21.28 3.6114-23.04 3.9054-4.3353 0.72427-4.147 0.64085-3.3583 1.4881 0.87469 0.93966 1.2422 0.95382 6.5583 0.25261 6.994-0.92251 8.4817-1.0375 7.52-0.58132-0.44 0.20872-1.2831 0.88949-1.8735 1.5128l-1.0735 1.1333-4.0465 0.18903c-3.5672 0.16665-4.0275 0.23129-3.0065 0.4223 0.57104 0.10684 1.0348 0.58454 0.85312 0.87862-0.10916 0.17661 0.0524 0.27399 0.36156 0.21789 0.3074-0.0558 0.62855 0.0986 0.71364 0.34314 0.0894 0.2568 0.0115 0.35597-0.18471 0.23478-0.18665-0.11536-0.41917-0.0807-0.51664 0.077-0.16512 0.26713-2.88 1.261-4.0785 1.493-0.29229 0.0566-0.73744-0.0664-0.98922-0.27325zm-0.46112-11.264c1.9105-0.43128 6.882-1.7852 11.048-3.0088 6.5395-1.9207 15.867-4.4726 26.029-7.1209 1.5264-0.39779 2.7059-0.83553 2.6211-0.97274s-1.949-0.24947-4.1428-0.24947h-3.9885l1.3087-1.6556c0.80557-1.0191 1.8849-1.9321 2.8074-2.3748l1.4988-0.71914-23.95-0.0253c-23.543-0.0248-23.988-0.0137-26.19 0.65494-2.7155 0.82481-6.214 0.72566-8.1474-0.23089-1.1048-0.54663-1.3704-0.56594-2.514-0.18284-1.0386 0.34795-1.6757 0.35508-3.3943 0.038-1.1889-0.21936-2.7582-0.29402-3.5824-0.17043-1.4165 0.21242-1.4484 0.24121-0.93315 0.84297 0.29341 0.34267 0.6903 0.62304 0.88201 0.62304 0.19168 0 0.63677 0.26852 0.98903 0.59672 1.1462 1.0679 1.8253 1.2426 5.71 1.4688 2.1064 0.12265 3.9462 0.29495 4.0885 0.3829 0.14227 0.0879 0.21888 0.39953 0.17021 0.69242-0.0734 0.44179 0.32048 0.56998 2.3115 0.75225 6.6829 0.61179 7.472 0.70647 6.88 0.82555-0.91552 0.18415-3.5278 1.1573-5.751 2.1423l-1.911 0.84672 2.3728 1.4069c1.305 0.77379 2.4926 1.3329 2.639 1.2424 0.1464-0.0905 0.22659 0.0262 0.17824 0.25929-0.0484 0.23309 0.0921 0.38779 0.31206 0.34379 0.22-0.044 0.4 0.088 0.4 0.29333 0 0.20534 0.0807 0.29261 0.17939 0.19394 0.0987-0.0987 0.53187 0.17309 0.96269 0.6039 0.43085 0.43085 0.94832 0.6813 1.15 0.55662 0.21251-0.13135 0.27987-0.0861 0.16013 0.10764-0.2032 0.32878 1.9352 1.5707 2.4515 1.4238 0.14508-0.0413 0.17705 0.0653 0.071 0.2368-0.22132 0.35812 0.91737 1.0651 1.2231 0.75939 0.11114-0.11114 0.20208-0.0449 0.20208 0.14713 0 0.44767 1.426 0.26981 5.8582-0.73069zm-20.69-10.587c-0.0262-0.0194-1.0558-0.12174-2.2878-0.22734l-2.24-0.192 1.2406 0.75967c1.1969 0.73293 1.2774 0.74093 2.2878 0.22734 0.57594-0.29279 1.0257-0.54824 0.9994-0.56767zm34.672 17.945c0-0.61012 1.8735-1.557 2.9343-1.4829 0.58253 0.0406 1.0603-0.20223 1.5017-0.76338 0.35606-0.45265 0.97962-0.86014 1.3857-0.90553 0.40608-0.0454 1.2423-0.31203 1.8583-0.59253 1.7137-0.78035 2.8802-1.0736 9.28-2.3325 3.256-0.64054 7.864-1.5944 10.24-2.1198 2.376-0.52535 4.716-0.87726 5.2-0.78201 0.484 0.0952 0.88 0.0328 0.88-0.13883 0-0.4107 0.86621-0.40262 1.1215 0.0105 0.32621 0.52779-0.72745 1.3442-1.4421 1.1174-0.42685-0.13547-0.70697-0.036-0.83449 0.29629-0.10557 0.27512-0.32087 0.42055-0.47844 0.32318-0.44956-0.27785-0.33542 0.0861 0.19261 0.61409 0.61642 0.61641 0.29034 1.4533-0.71523 1.8356-0.48883 0.18584-0.72291 0.47193-0.61539 0.75209 0.37853 0.98646-0.35741 1.1952-7.3084 2.0733-9.4279 1.1909-13.75 1.608-15.138 1.4608-0.88857-0.0942-1.6311 0.0197-2.09 0.32036-1.0212 0.66911-5.9718 0.92946-5.9718 0.31405zm31.68-6.2612c0-0.52222-0.8456-0.30116-1.7191 0.44941-0.47223 0.4058-0.7706 0.82584-0.66301 0.93343 0.24649 0.24648 2.3821-0.99327 2.3821-1.3828zm59.2-5.4281c-0.60848-0.38119-2.2991-1.058-2.7204-1.089-0.17622-0.013-0.6648-0.2648-1.0857-0.55962-0.42093-0.29481-1.4647-0.71529-2.3196-0.93438-1.5123-0.38759-1.5543-0.4308-1.5543-1.5997 0-0.85217 0.19254-1.3362 0.66243-1.6654 0.47479-0.33253 0.54279-0.50655 0.24-0.61419-0.23232-0.0826 3.4656-0.17856 8.2176-0.21324 4.752-0.0347 9.576-0.0729 10.72-0.0849s7.336-9.6e-4 13.76 0.0245c6.424 0.0255 20.248-0.0404 30.72-0.14654l19.04-0.1929-1.0154 0.64787c-0.9584 0.61147-1.8212 0.66675-15.36 0.9842-16.757 0.3929-25.061 0.96794-32.585 2.2564-2.992 0.51243-7.384 1.0925-9.76 1.289-3.6277 0.30002-6.8045 0.72004-15.52 2.0519-0.528 0.0807-1.176 0.0114-1.44-0.154zm77.892-6.4117c-0.53747-0.59391-0.48205-0.60804 2.2988-0.58609 3.5325 0.0279 5.2044 0.56186 1.8629 0.59502-1.2467 0.0124-2.3668 0.12266-2.4893 0.24509-0.44547 0.44549-1.1341 0.3409-1.6725-0.25402zm-374.38-4.0067c0.28496-0.28495 0.42733-0.60895 0.31636-0.72-0.26061-0.26084-6.1844-0.7613-8.4687-0.71546-6.4524 0.12948-33.146-0.0889-33.997-0.27807l-1.0432-0.2321 1.12-0.19197c0.616-0.10558 5.5808-0.2765 11.033-0.37982 13.139-0.24901 18.431-0.95551 27.207-3.6322 2.288-0.69786 4.6522-1.3719 5.2537-1.4978 1.6707-0.34973 0.62313-0.68101-2.8537-0.90244-4.4873-0.28578-19.783-1.3812-32-2.2917-5.896-0.4394-11.944-0.87786-13.44-0.97435-1.496-0.0965-3.296-0.23311-4-0.30361s-2.936-0.23793-4.96-0.37206l-3.68-0.24387 2.24-0.22776c8.9667-0.91173 21.209-2.6548 21.6-3.0753 0.45782-0.4929-14.775 1.0846-22.88 2.3693-1.76 0.279-3.56 0.54972-4 0.6016-0.44 0.0519-2.6364 0.39432-4.8809 0.76098-7.0162 1.1462-38.319 2.7944-38.319 2.0176 0-0.69711 7.0613-3.6617 13.094-5.4972 10.68-3.2496 16.822-5.5178 20.826-7.6902 2.024-1.0982 3.8908-2.1967 4.1486-2.4411 0.40016-0.37954-2.0053-0.44953-16.48-0.47947-15.599-0.0323-16.719-0.0699-14.069-0.47234 1.584-0.2405 5.544-0.58751 8.8-0.77113 3.256-0.18361 6.7063-0.47577 7.6673-0.64923 0.96099-0.17346 4.0414-0.53482 6.8454-0.80302s5.201-0.5512 5.3267-0.62888c0.70265-0.43427 11.657-1.1803 19.752-1.3452l9.3513-0.19046-0.30026 1.0469c-0.16512 0.5758-0.52122 1.3842-0.79133 1.7964-0.27008 0.41222-0.49107 0.79366-0.49107 0.84766 0 0.14901 7.0853-0.3481 8-0.56129 0.44-0.10254 6.416-0.30655 13.28-0.45335 10.699-0.22883 18.681-0.69044 20.267-1.1721 0.31184-0.0947 0.11728-0.68413-0.72-2.1813-0.63101-1.1284-1.1473-2.159-1.1473-2.2904 0-0.30182 25.788 0.13666 28.16 0.47882 1.2112 0.1747-0.78445 0.28196-6.4 0.34401-7.2512 0.0801-7.768 0.11846-4.64 0.34429 1.936 0.13977 5.392 0.47286 7.68 0.7402s6.248 0.63526 8.8 0.8176 5.864 0.54958 7.36 0.81609c1.496 0.26652 4.1466 0.57907 5.8903 0.69457l3.1703 0.20999-1.3023 1.1486c-0.71629 0.63173-1.9885 1.9382-2.8271 2.9033-0.83862 0.96508-1.7488 1.7571-2.0227 1.76-0.27385 3e-3 -0.55065 0.2933-0.6151 0.6453-0.21037 1.149-1.3075 1.9725-3.1833 2.3892-1.0065 0.2236-2.334 0.66282-2.95 0.97605-1.4826 0.75384-3.3138 2.5642-3.8131 3.7698-0.28675 0.69227-0.84566 1.1607-1.9536 1.6373-0.85357 0.3672-1.8162 0.66763-2.1391 0.66763s-1.6463 0.29351-2.9408 0.65225c-2.5764 0.71395-4.9607 2.1619-5.7143 3.4701-0.26541 0.46072-1.3448 1.34-2.3987 1.9538-1.7797 1.0367-2.0012 1.2988-3.1098 3.68-1.8352 3.9419-1.8941 3.9887-5.4518 4.3327-1.6714 0.1616-4.0931 0.29771-5.3817 0.30248-2.1591 8e-3 -2.3022-0.032-1.8248-0.50943zm12.83-8.8474c0.42742-0.50797 0.77712-0.83203 0.77712-0.72014s0.1792 0.0927 0.39824-0.0427c0.25392-0.15692-7e-3 -0.32893-0.71891-0.47461-0.78544-0.16064-1.8894-5e-3 -3.7179 0.52517-1.4304 0.4145-3.1588 0.87158-3.8411 1.0157-1.1596 0.24502-1.0841 0.27429 1.1596 0.44965 4.4636 0.34885 5.0815 0.27054 5.9429-0.7531zm4.273-4.9405c0.62928-0.27936 1.3494-0.54975 1.6002-0.60085 0.25082-0.0511 0.5633-0.28457 0.69437-0.5188 0.13107-0.23422 1.2939-0.92726 2.584-1.5401 1.2901-0.61282 2.3939-1.2231 2.453-1.3562 0.059-0.1331 0.23904-0.1606 0.4-0.0611s0.29267 0.0199 0.29267-0.17689c0-0.19677 0.144-0.26877 0.32-0.16s0.32 0.0453 0.32-0.14111c0-0.18639 0.288-0.33889 0.64-0.33889s0.64-0.144 0.64-0.32 0.20416-0.32 0.4537-0.32c0.24953 0 1.1495-0.34235 2-0.76077 0.85046-0.41842 1.7623-0.83905 2.0263-0.93473 0.66077-0.23949-8.0145-0.38503-16.32-0.27381-6.0622 0.0812-17.551 0.79196-18.88 1.168-0.264 0.0747-2.928 0.3587-5.92 0.63107-5.7759 0.5258-11.857 1.3849-12.62 1.7828-0.25293 0.13194 2.0511 0.16588 5.12 0.0754 4.7167-0.13905 5.5156-0.0967 5.164 0.27376-0.33095 0.34876-2.2792 0.44796-9.5409 0.48578-5.0188 0.0261-9.2236 0.15393-9.3441 0.28397-0.12052 0.13004 0.99872 0.13879 2.4872 0.0195 3.585-0.28744 3.1784 6e-3 -0.63821 0.45986-1.6655 0.19825-4.7516 0.85293-6.858 1.4548-2.1064 0.60191-4.1224 1.126-4.48 1.1647-2.4608 0.26636 16.654 0.45645 34.686 0.34494 18.817-0.11636 21.722-0.19836 22.72-0.64135zm-48.703-2.5273c-0.10633-0.10634-0.38233-0.1177-0.61334-0.0252-0.25526 0.10215-0.17946 0.17798 0.19334 0.19333 0.33732 0.0139 0.52634-0.0617 0.42-0.16807zm66.007-4.6067c0.38816-0.25084 0.34221-0.31114-0.24-0.3151-0.396-3e-3 -0.72 0.1391-0.72 0.3151 0 0.40093 0.33958 0.40093 0.96 0zm344.48 19.198c-1.76-0.13475-13.928-0.33956-27.04-0.45514-22.53-0.19861-29.836-0.48923-30.278-1.2044-0.11443-0.18516 0.43239-0.28747 1.3636-0.25512 0.85507 0.0297 11.527 0.0412 23.715 0.0256l22.16-0.0284v-0.6625c0-0.65678 0.085-0.66205 9.84-0.60991 6.4238 0.0343 10.451-0.076 11.6-0.31767 1.0046-0.21135 7.2538-0.48865 14.56-0.64606 7.04-0.15168 13.664-0.42625 14.72-0.61015 2.786-0.48518 16.406-0.84437 16-0.42196-0.47958 0.49937-4.0783 1.6023-7.0369 2.1567-1.4394 0.26973-4.7039 0.6135-7.2544 0.76394-3.0604 0.18052-4.9591 0.43995-5.5837 0.76296-0.52054 0.26918-2.0216 0.73729-3.3357 1.0402-2.0316 0.46836-4.473 0.5625-16.309 0.62888-7.656 0.0429-15.36-0.0322-17.12-0.16693zm-609.92-4.7714c1.056-0.10241 1.7665-0.28633 1.5788-0.40872s-9.7462-0.29693-21.241-0.38787c-11.495-0.0909-20.951-0.21591-21.012-0.27771-0.10413-0.10413 3.3043-0.81678 7.0748-1.4792 1.6189-0.28442 1.0854-0.46659-1.12-0.38246-0.616 0.0235-3.3152-0.0473-5.9981-0.15735-4.6755-0.19177-5.8123-0.50928-3.4262-0.95693 0.6123-0.11487 1.2192-0.38527 1.3488-0.6009 0.30765-0.51215 1.9338-1.0626 4.7444-1.606 2.8413-0.54932 8.7711-2.3763 8.7711-2.7024 0-0.13402-6.3-0.34265-14-0.46363s-17.6-0.38054-22-0.57682c-4.4-0.19627-10.16-0.34892-12.8-0.33922-4.7474 0.0174-4.7772 0.0132-2.72-0.3917 1.3237-0.26051 6.6178-0.48957 14.56-0.62998 6.864-0.12134 13.92-0.32773 15.68-0.45864 3.6227-0.26946 8.5968 0.14667 16.8 1.4055 5.2981 0.81302 6.4005 1.0357 5.36 1.0826-0.87838 0.0396-0.65512 0.6319 0.32 0.8489 0.484 0.10772 1.1034 0.25508 1.3764 0.32748 0.27302 0.0724 2.073-0.1504 4-0.4951 3.1354-0.56086 15.957-2.3347 19.664-2.7203 1.2023-0.1251 1.0042-0.012-1.2 0.68523-1.452 0.45928-2.64 0.97157-2.64 1.1384 0 0.18776 2.7131 0.23071 7.12 0.1127 3.916-0.10486 14.608-0.26653 23.76-0.35927l16.64-0.16863-1.2533 1.128c-0.68935 0.62037-1.1512 1.2301-1.0263 1.355 0.12487 0.12487 3.6409 0.33797 7.8134 0.47356 4.1724 0.1356 8.7383 0.28543 10.146 0.33296l2.56 0.0864-2.24 0.58786c-1.232 0.32332-3.464 0.65021-4.96 0.72641s-5.888 0.41504-9.76 0.75297c-3.872 0.33792-8.974 0.71495-11.338 0.83784l-4.2977 0.22343 1.193-1.4559c0.65616-0.80075 1.0781-1.5196 0.9377-1.5975-0.30855-0.17114-5.0727 0.54374-15.135 2.2711-4.136 0.70999-8.4494 1.3945-9.5854 1.5211-1.7677 0.19701-1.9522 0.27419-1.28 0.53534 0.44793 0.17402 3.3292 0.24315 6.7054 0.16087l5.92-0.14427-3.84 0.59131c-2.112 0.32521-4.812 0.67435-6 0.77586-2.5719 0.21975-2.8367 0.69284-0.48 0.8577 0.924 0.0646-0.192 0.11996-2.48 0.12293-2.7356 4e-3 -3.5026-0.0584-2.24-0.18081zm547.72-3.3541c0.10932-0.11898 2.4853-0.57801 5.28-1.02 2.7947-0.44205 7.0252-1.2243 9.4012-1.7382 2.376-0.51399 7.128-1.302 10.56-1.7512 6.0012-0.78541 13.326-2.2158 13.853-2.705 0.26156-0.2432-11.257-0.65767-18.278-0.65767-2.2009 0-3.9191-0.0825-3.8182-0.18336 0.21088-0.21088 8.7276-1.2962 21.203-2.7019 4.752-0.53545 11.952-1.606 16-2.3789 21.321-4.0712 25.571-4.4903 10.026-0.98887-3.4615 0.77969-9.0055 2.2807-12.32 3.3357-3.3144 1.0549-6.9623 2.1643-8.1063 2.4653-1.144 0.30099-2.1943 0.64734-2.334 0.76968-0.13968 0.12233 1.5951 0.31601 3.8551 0.43039 3.6004 0.18222 7.7675 0.95012 7.3611 1.3565-0.1576 0.15761-13.111 1.9774-29.442 4.1362-8.0012 1.0577-12.437 1.4821-17.12 1.6377-3.4762 0.11554-6.2309 0.11273-6.1216-6e-3zm-451.72-14.487c-2.112-0.24652-5.352-0.65992-7.2-0.91868-1.848-0.25875-3.792-0.52009-4.32-0.58075-0.528-0.0607 8.688-0.1229 20.48-0.13832l21.44-0.028-4.48 1.0026c-4.3763 0.97943-4.6837 1.0039-13.28 1.057-5.8414 0.0361-10.091-0.0963-12.64-0.39386zm514.72-4.2596-11.68-0.16601l2.56-0.7185c5.8114-1.6311 19.652-2.7972 24.532-2.067 1.2912 0.19318 3.7516 0.44438 5.4676 0.55822s3.12 0.31828 3.12 0.45431c0 0.13602-1.4235 0.69858-3.1634 1.2501-2.7409 0.86889-3.5636 0.99294-6.16 0.92883-1.6481-0.0407-8.2526-0.1487-14.677-0.24z" fill="#208abe"  class="cloud__three"/>
 <path d="m744.96 318.87c0-0.50506 1.9279-1.4291 2.9816-1.4291 0.36486 0 1.064-0.38382 1.5537-0.85295 0.48967-0.46912 1.1455-0.87424 1.4575-0.90027 0.31197-0.026 1.0712-0.2828 1.6872-0.57059 1.4834-0.69303 3.7697-1.245 10.88-2.6264 3.256-0.63262 7.7091-1.5383 9.8958-2.0125 2.9817-0.64673 4.0085-0.76419 4.1067-0.46979 0.18467 0.55401 0.7175 0.48907 0.7175-0.0874 0-0.54982 0.81725-0.64986 1.1332-0.13871 0.26711 0.43217-0.83187 1.2907-1.3963 1.0908-0.65913-0.23338-1.6568 0.4356-1.4507 0.97274 0.11296 0.29432-7e-3 0.47512-0.31404 0.47512-0.65444 0-2.3222 1.4447-1.9403 1.6808 0.16326 0.1009 0.88937-0.22057 1.6136-0.71439 1.1709-0.79843 1.2985-0.82806 1.1519-0.26756-0.0906 0.34666-0.51171 0.76216-0.93564 0.92335-0.47645 0.18114-0.73472 0.50433-0.67626 0.84622 0.14477 0.84679-1.3821 1.2064-9.0254 2.1254-10.175 1.2235-11.181 1.3189-13.273 1.2586-1.0519-0.0303-1.9916 0.0727-2.0883 0.22901-0.21107 0.34156-1.5438 0.59411-4.1476 0.78593-1.5332 0.11296-1.9316 0.0473-1.9316-0.31823zm29.01-3.8429c0.29769-0.77576-0.1177-0.91581-0.51491-0.17361-0.24765 0.46278-0.25255 0.66741-0.016 0.66741 0.18771 0 0.42656-0.22221 0.53078-0.4938zm61.23-8.2039c-0.616-0.17599-1.2937-0.4634-1.506-0.63869-0.21229-0.17528-0.52743-0.23127-0.70032-0.12442-0.1729 0.10686-0.4312-8e-3 -0.57402-0.2562-0.24963-0.43303-2.8892-1.483-3.7283-1.483-0.24438 0-0.43481-0.48387-0.47792-1.2144-0.0551-0.93341 0.10346-1.3666 0.68512-1.8724 0.71693-0.62336 1.185-0.661 8.8891-0.7149 4.4728-0.0313 9.0683-0.0721 10.212-0.0906 1.144-0.0186 9.928-0.0129 19.52 0.0127 9.592 0.0255 23.416-0.0397 30.72-0.14496l13.28-0.19138-1.0154 0.64834c-0.95869 0.6121-1.8171 0.66713-15.36 0.98462-16.784 0.39347-24.662 0.93198-32.773 2.2401-3.2405 0.52264-7.7638 1.1082-10.052 1.3012-2.288 0.193-6.4408 0.70436-9.2284 1.1364-5.5032 0.85281-6.2065 0.88915-7.8916 0.40773zm78.56-6.0223c-0.57427-0.63456-0.55904-0.63996 1.7904-0.6351 1.3033 3e-3 2.5856 0.14449 2.8496 0.3151 0.33414 0.21595-0.23066 0.31169-1.8589 0.3151-1.4766 3e-3 -2.266 0.12287-2.1411 0.3249 0.33174 0.53675-0.0269 0.35741-0.64-0.32zm-373.45-4.1533c0.74755-0.82603 0.57447-0.87705-3.834-1.1301-4.2707-0.24512-3.4538-0.23734-22.56-0.21506-8.536 0.01-16.024-0.0952-16.64-0.23358l-1.12-0.25167 1.12-0.19162c0.616-0.1054 5.656-0.26832 11.2-0.36206 5.544-0.0937 10.44-0.23269 10.88-0.30879s1.664-0.23488 2.72-0.35286c3.4577-0.3863 8.2356-1.4329 13.12-2.874 2.64-0.7789 5.304-1.5478 5.92-1.7087 1.0641-0.27788 1.08-0.30196 0.32-0.48227-0.44-0.10438-7.28-0.63351-15.2-1.1758-7.92-0.54233-14.76-1.0335-15.2-1.0915-0.44-0.058-7.64-0.59218-16-1.187s-14.768-1.1207-14.24-1.1686c7.8072-0.70789 20.711-2.4616 22.88-3.1096 2.612-0.7803-21.902 1.7912-25.597 2.6852-0.61744 0.14936-1.4106 0.26917-1.7626 0.26625-0.352-3e-3 -2.368 0.29727-4.48 0.66709s-6.36 0.82512-9.44 1.0118c-3.08 0.18665-7.76 0.48474-10.4 0.66244-2.64 0.17769-7.896 0.40062-11.68 0.49538-6.4263 0.16094-6.8378 0.13747-6.24-0.35597 1.4716-1.2147 5.7915-3.076 10.73-4.6231 12.81-4.0132 18.674-6.1586 22.55-8.2508 2.112-1.1399 4.0508-2.2726 4.3086-2.5171 0.40025-0.37976-2.0024-0.44969-16.48-0.47964-15.599-0.0323-16.719-0.0699-14.069-0.47234 1.584-0.2405 5.544-0.58751 8.8-0.77113 3.256-0.18361 6.7063-0.47577 7.6673-0.64923 0.96099-0.17346 4.0414-0.53482 6.8454-0.80302s5.2058-0.55414 5.3373-0.63542c0.68793-0.42518 11.839-1.176 19.901-1.3399l9.191-0.18686-0.2999 1.0457c-0.16496 0.57516-0.5209 1.383-0.79101 1.7952-0.27008 0.41222-0.49107 0.79159-0.49107 0.84305 0 0.12946 2.3723-0.0219 6.72-0.42873 2.024-0.18939 7.136-0.39622 11.36-0.45962 11.403-0.17113 21.626-0.73478 23.467-1.2938 0.31184-0.0947 0.11728-0.68413-0.72-2.1813-0.63101-1.1284-1.1473-2.159-1.1473-2.2904 0-0.30182 25.788 0.13666 28.16 0.47882 1.2112 0.1747-0.78445 0.28196-6.4 0.344-7.5311 0.0832-7.8764 0.11077-4.48 0.35766 2.024 0.14714 4.76 0.42276 6.08 0.6125s4.56 0.4788 7.2 0.64235c4.7371 0.29347 6.0835 0.44637 12.587 1.4294 1.8189 0.27494 4.1062 0.52092 5.0829 0.54662l1.7759 0.0467-1.295 1.1423c-0.71223 0.62828-1.9811 1.9319-2.8198 2.897-0.83862 0.96508-1.7488 1.7571-2.0227 1.76-0.27385 3e-3 -0.55065 0.2933-0.6151 0.6453-0.21037 1.149-1.3075 1.9725-3.1833 2.3892-1.0065 0.2236-2.334 0.66282-2.95 0.97605-1.4826 0.75384-3.3138 2.5642-3.8131 3.7698-0.28675 0.69227-0.84566 1.1607-1.9536 1.6373-0.85357 0.3672-1.8162 0.66763-2.1391 0.66763s-1.6463 0.29351-2.9408 0.65225c-2.5764 0.71395-4.9607 2.1619-5.7143 3.4701-0.26541 0.46072-1.3448 1.34-2.3987 1.9538-1.7797 1.0367-2.0012 1.2988-3.1098 3.68-1.8352 3.9419-1.8941 3.9887-5.4518 4.3327-1.6714 0.1616-3.8892 0.29771-4.9284 0.30248-1.8629 9e-3 -1.8815-2.8e-4 -1.3164-0.62466zm12.555-8.7267c1.3383-0.95785 1.393-1.0489 0.69232-1.1523-0.41843-0.0617-0.84282-0.24422-0.9431-0.40551-0.10202-0.16416-1.2289 0.0462-2.56 0.4778-1.3077 0.42407-3.2417 0.96518-4.2977 1.2025l-1.92 0.43141 2.24 0.18654c4.9367 0.41112 5.2232 0.37987 6.7885-0.74044zm0.77235-2.08c0.39802-0.50754 0.38672-0.51886-0.12083-0.12082-0.53302 0.41804-0.70256 0.68082-0.43917 0.68082 0.0664 0 0.31843-0.252 0.56-0.56zm3.3851-2.397c0.21226-0.0163 0.31178-0.14964 0.22112-0.2963-0.0907-0.14667 0.11226-0.26667 0.45091-0.26667 0.33866 0 0.95917-0.25619 1.3789-0.5693 0.41975-0.31312 1.5912-0.99153 2.6032-1.5076 1.012-0.51605 1.84-1.0604 1.84-1.2096 0-0.14923 0.13238-0.1895 0.29421-0.0895 0.16179 0.10001 0.52179-0.0458 0.8-0.32397 0.27817-0.27819 0.50579-0.43163 0.50579-0.34099 0 0.0906 1.4677-0.53847 3.2615-1.398 1.7938-0.85955 3.3778-1.4909 3.52-1.4031 0.14218 0.0879 0.2585 7e-3 0.2585-0.17912 0-0.96805-31.332-0.30201-36.8 0.78228-0.44 0.0873-3.104 0.37386-5.92 0.63691-5.8484 0.54632-12.027 1.437-12.441 1.7934-0.15434 0.13298 2.2217 0.16246 5.28 0.0655 4.7089-0.14928 5.4969-0.10894 5.1447 0.26336-0.33081 0.34969-2.2952 0.45387-9.6 0.50913-5.0512 0.0382-9.6881 0.21348-10.304 0.38949l-1.12 0.32003 1.2-0.0853c0.66-0.0469 1.2 0.0299 1.2 0.17051 0 0.14066-0.324 0.25902-0.72 0.26304-0.396 4e-3 -2.736 0.57025-5.2 1.2583l-4.48 1.251 6.72 0.1344c5.27 0.10541 50.241-0.0402 51.906-0.16803zm-47.879-2.9192c0.0733-0.0639 1.1413-0.19469 2.3733-0.29057 1.3587-0.10574 1.8623-0.0749 1.28 0.0784-0.97261 0.25604-3.8985 0.42598-3.6533 0.21219zm65.17-4.3638 1.1941-0.64h-1.4853c-1.3278 0-1.4676 0.0679-1.3179 0.64 0.092 0.352 0.22307 0.64 0.2912 0.64 0.0681 0 0.66118-0.288 1.3179-0.64zm343.92 18.878c-1.76-0.13475-13.928-0.33956-27.04-0.45514-22.53-0.19861-29.836-0.48923-30.278-1.2044-0.11443-0.18516 0.43239-0.28747 1.3636-0.25512 0.85507 0.0297 11.527 0.0412 23.715 0.0256l22.16-0.0284v-0.6625c0-0.65678 0.085-0.66205 9.84-0.60991 6.4238 0.0343 10.451-0.076 11.6-0.31767 1.0046-0.21135 7.2538-0.48865 14.56-0.64606 7.04-0.15168 13.664-0.42625 14.72-0.61015 2.786-0.48518 16.406-0.84437 16-0.42196-0.47958 0.49937-4.0783 1.6023-7.0369 2.1567-1.4394 0.26973-4.7039 0.6135-7.2544 0.76394-3.0604 0.18052-4.9591 0.43995-5.5837 0.76296-0.52054 0.26918-2.0216 0.73729-3.3357 1.0402-2.0316 0.46836-4.473 0.5625-16.309 0.62888-7.656 0.0429-15.36-0.0322-17.12-0.16693zm-609.92-4.7714c1.056-0.10241 1.7665-0.28633 1.5788-0.40872s-9.7462-0.29693-21.241-0.38787c-11.495-0.0909-20.951-0.21591-21.012-0.27771-0.10413-0.10413 3.3043-0.81678 7.0748-1.4792 1.6189-0.28442 1.0854-0.46659-1.12-0.38246-0.616 0.0235-3.3152-0.0473-5.9981-0.15735-4.6755-0.19177-5.8123-0.50928-3.4262-0.95693 0.6123-0.11487 1.2192-0.38527 1.3488-0.6009 0.30765-0.51215 1.9338-1.0626 4.7444-1.606 2.8413-0.54932 8.7711-2.3763 8.7711-2.7024 0-0.13402-6.3-0.34265-14-0.46363s-17.6-0.38054-22-0.57682c-4.4-0.19627-10.16-0.34892-12.8-0.33922-4.7474 0.0174-4.7772 0.0132-2.72-0.3917 1.3237-0.26051 6.6178-0.48957 14.56-0.62998 6.864-0.12134 13.92-0.32773 15.68-0.45864 3.6227-0.26946 8.5968 0.14667 16.8 1.4055 5.2981 0.81302 6.4005 1.0357 5.36 1.0826-0.87838 0.0396-0.65512 0.6319 0.32 0.8489 0.484 0.10772 1.1034 0.25508 1.3764 0.32748 0.27302 0.0724 2.073-0.1504 4-0.4951 3.1354-0.56086 15.957-2.3347 19.664-2.7203 1.2023-0.1251 1.0042-0.012-1.2 0.68523-1.452 0.45928-2.64 0.97157-2.64 1.1384 0 0.18776 2.7131 0.23071 7.12 0.1127 3.916-0.10486 14.608-0.26653 23.76-0.35927l16.64-0.16863-1.2533 1.128c-0.68935 0.62037-1.1512 1.2301-1.0263 1.355 0.12487 0.12487 3.6409 0.33797 7.8134 0.47356 4.1724 0.1356 8.7383 0.28543 10.146 0.33296l2.56 0.0864-2.24 0.58786c-1.232 0.32332-3.464 0.65021-4.96 0.72641s-5.888 0.41504-9.76 0.75297c-3.872 0.33792-8.974 0.71495-11.338 0.83784l-4.2977 0.22343 1.193-1.4559c0.65616-0.80075 1.0781-1.5196 0.9377-1.5975-0.30855-0.17114-5.0727 0.54374-15.135 2.2711-4.136 0.70999-8.4494 1.3945-9.5854 1.5211-1.7677 0.19701-1.9522 0.27419-1.28 0.53534 0.44793 0.17402 3.3292 0.24315 6.7054 0.16087l5.92-0.14427-3.84 0.59131c-2.112 0.32521-4.812 0.67435-6 0.77586-2.5719 0.21975-2.8367 0.69284-0.48 0.8577 0.924 0.0646-0.192 0.11996-2.48 0.12293-2.7356 4e-3 -3.5026-0.0584-2.24-0.18081zm547.69-3.3277c0.0938-0.10242 2.5048-0.55134 5.3579-0.99761 2.8531-0.44626 6.8084-1.1815 8.7895-1.634s6.7701-1.2442 10.642-1.7596c6.3685-0.84762 14.007-2.3476 14.653-2.8774 0.26905-0.22071-11.606-0.63002-18.278-0.63002-2.2009 0-3.925-0.0766-3.8313-0.17029 0.20192-0.2019 18.582-2.5155 24.096-3.0332 2.112-0.19826 7.152-0.99478 11.2-1.77s8.728-1.6266 10.4-1.8918 4.5517-0.77301 6.3994-1.1284c6.8499-1.3177 3.83-0.30696-4.7994 1.6064-3.256 0.72193-8.584 2.1617-11.84 3.1994s-7.072 2.1942-8.48 2.5699c-3.3625 0.89717-3.678 1.2574-1.104 1.2607 2.9126 4e-3 7.5063 0.56969 8.7188 1.0742l1.0252 0.4266-1.76 0.23858c-0.968 0.13122-5.72 0.7939-10.56 1.4726-19.985 2.8026-28.617 3.801-34.72 4.016-3.344 0.11777-6.0033 0.13034-5.9095 0.0279zm-451.21-14.504c-2.024-0.2446-4.976-0.61348-6.56-0.81974s-3.672-0.47069-4.64-0.58761c-0.968-0.11693 7.888-0.22292 19.68-0.23554l21.44-0.023-4.48 0.98846c-4.3293 0.95521-4.7705 0.9907-13.12 1.0553-5.7951 0.0448-9.8517-0.0796-12.32-0.37789zm515.37-4.2685-12.792-0.16552l2.5518-0.712c6.0585-1.6904 18.994-2.7567 24.728-2.0384 3.9422 0.49381 4.9878 0.5905 6.8635 0.63464 0.836 0.0197 1.52 0.14915 1.52 0.28772s-1.4114 0.71457-3.1364 1.28c-2.3512 0.77066-3.613 1.0094-5.04 0.95357-1.047-0.041-7.6599-0.14896-14.695-0.24z" fill="#ea0c0c"  class="cloud__four"/>
 <path d="m744.96 318.87c0-0.50506 1.9279-1.4291 2.9816-1.4291 0.36486 0 1.064-0.38382 1.5537-0.85295 0.48967-0.46912 1.1455-0.87424 1.4575-0.90027 0.31197-0.026 1.0712-0.2828 1.6872-0.57059 1.4834-0.69303 3.7697-1.245 10.88-2.6264 3.256-0.63262 7.7091-1.5383 9.8958-2.0125 2.9817-0.64673 4.0085-0.76419 4.1067-0.46979 0.18467 0.55401 0.7175 0.48907 0.7175-0.0874 0-0.54982 0.81725-0.64986 1.1332-0.13871 0.26711 0.43217-0.83187 1.2907-1.3963 1.0908-0.65913-0.23338-1.6568 0.4356-1.4507 0.97274 0.11296 0.29432-7e-3 0.47512-0.31404 0.47512-0.65444 0-2.3222 1.4447-1.9403 1.6808 0.16326 0.1009 0.88937-0.22057 1.6136-0.71439 1.1709-0.79843 1.2985-0.82806 1.1519-0.26756-0.0906 0.34666-0.51171 0.76216-0.93564 0.92335-0.47645 0.18114-0.73472 0.50433-0.67626 0.84622 0.14477 0.84679-1.3821 1.2064-9.0254 2.1254-10.175 1.2235-11.181 1.3189-13.273 1.2586-1.0519-0.0303-1.9916 0.0727-2.0883 0.22901-0.21107 0.34156-1.5438 0.59411-4.1476 0.78593-1.5332 0.11296-1.9316 0.0473-1.9316-0.31823zm29.01-3.8429c0.29769-0.77576-0.1177-0.91581-0.51491-0.17361-0.24765 0.46278-0.25255 0.66741-0.016 0.66741 0.18771 0 0.42656-0.22221 0.53078-0.4938zm61.23-8.2039c-0.616-0.17599-1.2937-0.4634-1.506-0.63869-0.21229-0.17528-0.52743-0.23127-0.70032-0.12442-0.1729 0.10686-0.4312-8e-3 -0.57402-0.2562-0.24963-0.43303-2.8892-1.483-3.7283-1.483-0.24438 0-0.43481-0.48387-0.47792-1.2144-0.0551-0.93341 0.10346-1.3666 0.68512-1.8724 0.71693-0.62336 1.185-0.661 8.8891-0.7149 4.4728-0.0313 9.0683-0.0721 10.212-0.0906 1.144-0.0186 9.928-0.0129 19.52 0.0127 9.592 0.0255 23.416-0.0397 30.72-0.14496l13.28-0.19138-1.0154 0.64834c-0.95869 0.6121-1.8171 0.66713-15.36 0.98462-16.784 0.39347-24.662 0.93198-32.773 2.2401-3.2405 0.52264-7.7638 1.1082-10.052 1.3012-2.288 0.193-6.4408 0.70436-9.2284 1.1364-5.5032 0.85281-6.2065 0.88915-7.8916 0.40773zm78.56-6.0223c-0.57427-0.63456-0.55904-0.63996 1.7904-0.6351 1.3033 3e-3 2.5856 0.14449 2.8496 0.3151 0.33414 0.21595-0.23066 0.31169-1.8589 0.3151-1.4766 3e-3 -2.266 0.12287-2.1411 0.3249 0.33174 0.53675-0.0269 0.35741-0.64-0.32zm-373.45-4.1533c0.74755-0.82603 0.57447-0.87705-3.834-1.1301-4.2707-0.24512-3.4538-0.23734-22.56-0.21506-8.536 0.01-16.024-0.0952-16.64-0.23358l-1.12-0.25167 1.12-0.19162c0.616-0.1054 5.656-0.26832 11.2-0.36206 5.544-0.0937 10.44-0.23269 10.88-0.30879s1.664-0.23488 2.72-0.35286c3.4577-0.3863 8.2356-1.4329 13.12-2.874 2.64-0.7789 5.304-1.5478 5.92-1.7087 1.0641-0.27788 1.08-0.30196 0.32-0.48227-0.44-0.10438-7.28-0.63351-15.2-1.1758-7.92-0.54233-14.76-1.0335-15.2-1.0915-0.44-0.058-7.64-0.59218-16-1.187s-14.768-1.1207-14.24-1.1686c7.8072-0.70789 20.711-2.4616 22.88-3.1096 2.612-0.7803-21.902 1.7912-25.597 2.6852-0.61744 0.14936-1.4106 0.26917-1.7626 0.26625-0.352-3e-3 -2.368 0.29727-4.48 0.66709s-6.36 0.82512-9.44 1.0118c-3.08 0.18665-7.76 0.48474-10.4 0.66244-2.64 0.17769-7.896 0.40062-11.68 0.49538-6.4263 0.16094-6.8378 0.13747-6.24-0.35597 1.4716-1.2147 5.7915-3.076 10.73-4.6231 12.81-4.0132 18.674-6.1586 22.55-8.2508 2.112-1.1399 4.0508-2.2726 4.3086-2.5171 0.40025-0.37976-2.0024-0.44969-16.48-0.47964-15.599-0.0323-16.719-0.0699-14.069-0.47234 1.584-0.2405 5.544-0.58751 8.8-0.77113 3.256-0.18361 6.7063-0.47577 7.6673-0.64923 0.96099-0.17346 4.0414-0.53482 6.8454-0.80302s5.2058-0.55414 5.3373-0.63542c0.68793-0.42518 11.839-1.176 19.901-1.3399l9.191-0.18686-0.2999 1.0457c-0.16496 0.57516-0.5209 1.383-0.79101 1.7952-0.27008 0.41222-0.49107 0.79159-0.49107 0.84305 0 0.12946 2.3723-0.0219 6.72-0.42873 2.024-0.18939 7.136-0.39622 11.36-0.45962 11.403-0.17113 21.626-0.73478 23.467-1.2938 0.31184-0.0947 0.11728-0.68413-0.72-2.1813-0.63101-1.1284-1.1473-2.159-1.1473-2.2904 0-0.30182 25.788 0.13666 28.16 0.47882 1.2112 0.1747-0.78445 0.28196-6.4 0.344-7.5311 0.0832-7.8764 0.11077-4.48 0.35766 2.024 0.14714 4.76 0.42276 6.08 0.6125s4.56 0.4788 7.2 0.64235c4.7371 0.29347 6.0835 0.44637 12.587 1.4294 1.8189 0.27494 4.1062 0.52092 5.0829 0.54662l1.7759 0.0467-1.295 1.1423c-0.71223 0.62828-1.9811 1.9319-2.8198 2.897-0.83862 0.96508-1.7488 1.7571-2.0227 1.76-0.27385 3e-3 -0.55065 0.2933-0.6151 0.6453-0.21037 1.149-1.3075 1.9725-3.1833 2.3892-1.0065 0.2236-2.334 0.66282-2.95 0.97605-1.4826 0.75384-3.3138 2.5642-3.8131 3.7698-0.28675 0.69227-0.84566 1.1607-1.9536 1.6373-0.85357 0.3672-1.8162 0.66763-2.1391 0.66763s-1.6463 0.29351-2.9408 0.65225c-2.5764 0.71395-4.9607 2.1619-5.7143 3.4701-0.26541 0.46072-1.3448 1.34-2.3987 1.9538-1.7797 1.0367-2.0012 1.2988-3.1098 3.68-1.8352 3.9419-1.8941 3.9887-5.4518 4.3327-1.6714 0.1616-3.8892 0.29771-4.9284 0.30248-1.8629 9e-3 -1.8815-2.8e-4 -1.3164-0.62466zm12.555-8.7267c1.3383-0.95785 1.393-1.0489 0.69232-1.1523-0.41843-0.0617-0.84282-0.24422-0.9431-0.40551-0.10202-0.16416-1.2289 0.0462-2.56 0.4778-1.3077 0.42407-3.2417 0.96518-4.2977 1.2025l-1.92 0.43141 2.24 0.18654c4.9367 0.41112 5.2232 0.37987 6.7885-0.74044zm0.77235-2.08c0.39802-0.50754 0.38672-0.51886-0.12083-0.12082-0.53302 0.41804-0.70256 0.68082-0.43917 0.68082 0.0664 0 0.31843-0.252 0.56-0.56zm3.3851-2.397c0.21226-0.0163 0.31178-0.14964 0.22112-0.2963-0.0907-0.14667 0.11226-0.26667 0.45091-0.26667 0.33866 0 0.95917-0.25619 1.3789-0.5693 0.41975-0.31312 1.5912-0.99153 2.6032-1.5076 1.012-0.51605 1.84-1.0604 1.84-1.2096 0-0.14923 0.13238-0.1895 0.29421-0.0895 0.16179 0.10001 0.52179-0.0458 0.8-0.32397 0.27817-0.27819 0.50579-0.43163 0.50579-0.34099 0 0.0906 1.4677-0.53847 3.2615-1.398 1.7938-0.85955 3.3778-1.4909 3.52-1.4031 0.14218 0.0879 0.2585 7e-3 0.2585-0.17912 0-0.96805-31.332-0.30201-36.8 0.78228-0.44 0.0873-3.104 0.37386-5.92 0.63691-5.8484 0.54632-12.027 1.437-12.441 1.7934-0.15434 0.13298 2.2217 0.16246 5.28 0.0655 4.7089-0.14928 5.4969-0.10894 5.1447 0.26336-0.33081 0.34969-2.2952 0.45387-9.6 0.50913-5.0512 0.0382-9.6881 0.21348-10.304 0.38949l-1.12 0.32003 1.2-0.0853c0.66-0.0469 1.2 0.0299 1.2 0.17051 0 0.14066-0.324 0.25902-0.72 0.26304-0.396 4e-3 -2.736 0.57025-5.2 1.2583l-4.48 1.251 6.72 0.1344c5.27 0.10541 50.241-0.0402 51.906-0.16803zm-47.879-2.9192c0.0733-0.0639 1.1413-0.19469 2.3733-0.29057 1.3587-0.10574 1.8623-0.0749 1.28 0.0784-0.97261 0.25604-3.8985 0.42598-3.6533 0.21219zm65.17-4.3638 1.1941-0.64h-1.4853c-1.3278 0-1.4676 0.0679-1.3179 0.64 0.092 0.352 0.22307 0.64 0.2912 0.64 0.0681 0 0.66118-0.288 1.3179-0.64zm343.92 18.878c-1.76-0.13475-13.928-0.33956-27.04-0.45514-22.53-0.19861-29.836-0.48923-30.278-1.2044-0.11443-0.18516 0.43239-0.28747 1.3636-0.25512 0.85507 0.0297 11.527 0.0412 23.715 0.0256l22.16-0.0284v-0.6625c0-0.65678 0.085-0.66205 9.84-0.60991 6.4238 0.0343 10.451-0.076 11.6-0.31767 1.0046-0.21135 7.2538-0.48865 14.56-0.64606 7.04-0.15168 13.664-0.42625 14.72-0.61015 2.786-0.48518 16.406-0.84437 16-0.42196-0.47958 0.49937-4.0783 1.6023-7.0369 2.1567-1.4394 0.26973-4.7039 0.6135-7.2544 0.76394-3.0604 0.18052-4.9591 0.43995-5.5837 0.76296-0.52054 0.26918-2.0216 0.73729-3.3357 1.0402-2.0316 0.46836-4.473 0.5625-16.309 0.62888-7.656 0.0429-15.36-0.0322-17.12-0.16693zm-62.23-8.099c0.0938-0.10242 2.5048-0.55134 5.3579-0.99761 2.8531-0.44626 6.8084-1.1815 8.7895-1.634s6.7701-1.2442 10.642-1.7596c6.3685-0.84762 14.007-2.3476 14.653-2.8774 0.26905-0.22071-11.606-0.63002-18.278-0.63002-2.2009 0-3.925-0.0766-3.8313-0.17029 0.20192-0.2019 18.582-2.5155 24.096-3.0332 2.112-0.19826 7.152-0.99478 11.2-1.77s8.728-1.6266 10.4-1.8918 4.5517-0.77301 6.3994-1.1284c6.8499-1.3177 3.83-0.30696-4.7994 1.6064-3.256 0.72193-8.584 2.1617-11.84 3.1994s-7.072 2.1942-8.48 2.5699c-3.3625 0.89717-3.678 1.2574-1.104 1.2607 2.9126 4e-3 7.5063 0.56969 8.7188 1.0742l1.0252 0.4266-1.76 0.23858c-0.968 0.13122-5.72 0.7939-10.56 1.4726-19.985 2.8026-28.617 3.801-34.72 4.016-3.344 0.11777-6.0033 0.13034-5.9095 0.0279zm-451.21-14.504c-2.024-0.2446-4.976-0.61348-6.56-0.81974s-3.672-0.47069-4.64-0.58761c-0.968-0.11693 7.888-0.22292 19.68-0.23554l21.44-0.023-4.48 0.98846c-4.3293 0.95521-4.7705 0.9907-13.12 1.0553-5.7951 0.0448-9.8517-0.0796-12.32-0.37789zm515.37-4.2685-12.792-0.16552l2.5518-0.712c6.0585-1.6904 18.994-2.7567 24.728-2.0384 3.9422 0.49381 4.9878 0.5905 6.8635 0.63464 0.836 0.0197 1.52 0.14915 1.52 0.28772s-1.4114 0.71457-3.1364 1.28c-2.3512 0.77066-3.613 1.0094-5.04 0.95357-1.047-0.041-7.6599-0.14896-14.695-0.24z" fill="#0a9211"  class="cloud__five"/>
 <path d="m744.96 318.87c0-0.50506 1.9279-1.4291 2.9816-1.4291 0.36486 0 1.064-0.38382 1.5537-0.85295 0.48967-0.46912 1.1455-0.87424 1.4575-0.90027 0.31197-0.026 1.0712-0.2828 1.6872-0.57059 1.4834-0.69303 3.7697-1.245 10.88-2.6264 3.256-0.63262 7.7091-1.5383 9.8958-2.0125 2.9817-0.64673 4.0085-0.76419 4.1067-0.46979 0.18467 0.55401 0.7175 0.48907 0.7175-0.0874 0-0.54982 0.81725-0.64986 1.1332-0.13871 0.26711 0.43217-0.83187 1.2907-1.3963 1.0908-0.65913-0.23338-1.6568 0.4356-1.4507 0.97274 0.11296 0.29432-7e-3 0.47512-0.31404 0.47512-0.65444 0-2.3222 1.4447-1.9403 1.6808 0.16326 0.1009 0.88937-0.22057 1.6136-0.71439 1.1709-0.79843 1.2985-0.82806 1.1519-0.26756-0.0906 0.34666-0.51171 0.76216-0.93564 0.92335-0.47645 0.18114-0.73472 0.50433-0.67626 0.84622 0.14477 0.84679-1.3821 1.2064-9.0254 2.1254-10.175 1.2235-11.181 1.3189-13.273 1.2586-1.0519-0.0303-1.9916 0.0727-2.0883 0.22901-0.21107 0.34156-1.5438 0.59411-4.1476 0.78593-1.5332 0.11296-1.9316 0.0473-1.9316-0.31823zm29.01-3.8429c0.29769-0.77576-0.1177-0.91581-0.51491-0.17361-0.24765 0.46278-0.25255 0.66741-0.016 0.66741 0.18771 0 0.42656-0.22221 0.53078-0.4938zm61.23-8.2039c-0.616-0.17599-1.2937-0.4634-1.506-0.63869-0.21229-0.17528-0.52743-0.23127-0.70032-0.12442-0.1729 0.10686-0.4312-8e-3 -0.57402-0.2562-0.24963-0.43303-2.8892-1.483-3.7283-1.483-0.24438 0-0.43481-0.48387-0.47792-1.2144-0.0551-0.93341 0.10346-1.3666 0.68512-1.8724 0.71693-0.62336 1.185-0.661 8.8891-0.7149 4.4728-0.0313 9.0683-0.0721 10.212-0.0906 1.144-0.0186 9.928-0.0129 19.52 0.0127 9.592 0.0255 23.416-0.0397 30.72-0.14496l13.28-0.19138-1.0114 0.64589c-0.93622 0.59789-1.7091 0.6596-10.4 0.83046-19.918 0.3916-28.95 0.96504-37.804 2.4003-3.2038 0.51936-7.6971 1.1027-9.9851 1.2964-2.288 0.19365-6.4408 0.70553-9.2284 1.1375-5.5032 0.85281-6.2065 0.88915-7.8916 0.40773zm78.332-6.2623c-0.25952-0.3138 0.1776-0.39894 2.0284-0.3951 3.3228 7e-3 3.9448 0.55152 0.78563 0.6879-1.7112 0.0739-2.5861-0.0172-2.814-0.2928zm4.8676-5.5262c-1.672-0.1331-12.76-0.33151-24.64-0.4409-28.073-0.2585-32.64-0.42909-32.64-1.2192 0-0.16612 0.612-0.27781 1.36-0.24819 0.748 0.0296 11.315 0.0405 23.483 0.0242 22.094-0.0296 22.123-0.0305 22.296-0.6924 0.17088-0.65344 0.30902-0.66195 9.8773-0.60812 6.6003 0.0371 10.318-0.0707 11.624-0.3372 1.1665-0.23802 6.8809-0.4906 14.56-0.64356 6.952-0.13848 13.504-0.40367 14.56-0.58932 2.7462-0.48279 15.84-0.86297 15.84-0.45993 0 0.37935-4.7903 1.8616-7.52 2.327-1.056 0.18001-4.0216 0.45751-6.5903 0.61666-3.0442 0.18861-4.9977 0.45869-5.6107 0.77568-0.51725 0.26748-2.0156 0.73419-3.3297 1.0372-2.0331 0.46871-4.4644 0.56195-16.309 0.62548-7.656 0.0411-15.288-0.0342-16.96-0.16733zm-62.39-8.0952c0.0938-0.10242 2.5048-0.55134 5.3579-0.99761 2.8531-0.44626 6.8084-1.1815 8.7895-1.634s6.7701-1.2442 10.642-1.7596c6.3685-0.84762 14.007-2.3476 14.653-2.8774 0.26905-0.22071-11.606-0.63002-18.278-0.63002-2.2009 0-3.925-0.0766-3.8313-0.17029 0.20876-0.20876 18.736-2.5225 24.256-3.0292 2.2-0.20193 7.672-1.0677 12.16-1.9239 9.6266-1.8365 18.999-3.5254 19.397-3.4953 0.66106 0.0501-3.0047 1.0086-8.5175 2.2272-3.256 0.71972-8.584 2.1576-11.84 3.1953-3.256 1.0377-7.072 2.196-8.48 2.5739-3.3634 0.90281-3.6765 1.2615-1.104 1.2648 2.9126 4e-3 7.5063 0.56969 8.7188 1.0742l1.0252 0.4266-1.76 0.23858c-0.968 0.13122-5.72 0.7939-10.56 1.4726-19.985 2.8026-28.617 3.801-34.72 4.016-3.344 0.11777-6.0033 0.13034-5.9095 0.0279zm64.158-18.773-12.792-0.16552l2.5518-0.712c6.0585-1.6904 18.994-2.7567 24.728-2.0384 3.9422 0.49381 4.9878 0.5905 6.8635 0.63464 0.836 0.0197 1.52 0.14915 1.52 0.28772s-1.4114 0.71457-3.1364 1.28c-2.3512 0.77066-3.613 1.0094-5.04 0.95357-1.047-0.041-7.6599-0.14896-14.695-0.24z" fill="#010101"  class="cloud__six"/>
</svg>
